<?xml version="1.0" encoding="utf-8"?>
<!-- Generator: Adobe Illustrator 21.0.2, SVG Export Plug-In . SVG Version: 6.00 Build 0)  -->
<svg version="1.1" id="Layer_1" xmlns="http://www.w3.org/2000/svg" xmlns:xlink="http://www.w3.org/1999/xlink" x="0px" y="0px"
	 viewBox="0 0 24 24" style="enable-background:new 0 0 24 24;" xml:space="preserve">
<path id="Combined-Shape" d="M0.2,12.6c0,0.1,0.1,0.1,0.1,0.1l4,4c0.4,0.4,1,0.4,1.4,0c0.4-0.4,0.4-1,0-1.4L3.4,13H23
	c0.6,0,1-0.4,1-1s-0.4-1-1-1H3.4l2.3-2.3c0.4-0.4,0.4-1,0-1.4c-0.4-0.4-1-0.4-1.4,0l-4,4c-0.1,0.1-0.2,0.3-0.3,0.5
	C0,12.1,0,12.3,0.2,12.6L0.2,12.6z"/>
</svg>
