<svg width="24px" height="24px" viewBox="0 0 24 24" version="1.1" xmlns="http://www.w3.org/2000/svg" xmlns:xlink="http://www.w3.org/1999/xlink">
    <path d="M16.6369435,7.32166083 C16.8245373,7.50950475 16.9323412,7.79264632 16.9323412,8.05827914 L16.9365933,13.2953977 C16.9365933,13.8481741 16.4983742,14.2536268 15.9458479,14.2536268 L15.9653577,14.2536268 C15.4128314,14.2536268 15.0041271,13.8906953 15.0041271,13.337919 L15.0041271,10.4954977 L8.7469985,16.7118559 C8.5514007,16.9072036 8.25675338,17 8.00062531,17 C7.74449725,17 7.48836918,16.8921961 7.29302151,16.6968484 C6.90232616,16.305903 6.90232616,15.6523262 7.29302151,15.2613807 L13.5106303,9.0010005 L10.6704602,9.0010005 C10.117934,9.0010005 9.66995998,8.55327664 9.66995998,8.00050025 C9.66995998,7.44772386 10.117934,7 10.6704602,7 L15.9268384,7 C16.1922211,7 16.4490995,7.13406703 16.6369435,7.32166083" id="Path"></path>
</svg>