<svg width="24px" height="24px" viewBox="0 0 24 24" version="1.1" xmlns="http://www.w3.org/2000/svg" xmlns:xlink="http://www.w3.org/1999/xlink">
    <path d="M17.6959009,16.2272714 C18.1013664,16.6327369 18.1013664,17.2904355 17.6959009,17.6959009 C17.4930528,17.898749 17.2274349,18.0000577 16.9615862,18.0000577 C16.6957375,18.0000577 16.4301195,17.898749 16.2272714,17.6959009 L12,13.4686295 L7.77272858,17.6959009 C7.56988048,17.898749 7.30426254,18.0000577 7.03841383,18.0000577 C6.77256512,18.0000577 6.50694718,17.898749 6.30409908,17.6959009 C5.89863364,17.2904355 5.89863364,16.6327369 6.30409908,16.2272714 L10.5313705,12 L6.30409908,7.77272858 C5.89863364,7.36726315 5.89863364,6.70956452 6.30409908,6.30409908 C6.70979529,5.89863364 7.36703238,5.89863364 7.77272858,6.30409908 L12,10.5313705 L16.2272714,6.30409908 C16.6329676,5.89863364 17.2902047,5.89863364 17.6959009,6.30409908 C18.1013664,6.70956452 18.1013664,7.36726315 17.6959009,7.77272858 L13.4686295,12 L17.6959009,16.2272714 Z" id="cross"></path>
</svg>