<svg width="24px" height="24px" viewBox="0 0 24 24" version="1.1" xmlns="http://www.w3.org/2000/svg" xmlns:xlink="http://www.w3.org/1999/xlink">
    <path d="M18.8177778,14.7475556 L9.69555556,14.7475556 L12.1,17.152 C12.4037778,17.4557778 12.4037778,17.9482222 12.1,18.252 C11.948,18.4037778 11.7488889,18.4797778 11.55,18.4797778 C11.3508889,18.4797778 11.152,18.4037778 11,18.252 L7.26777778,14.5197778 C7.122,14.3737778 7.04,14.1762222 7.04,13.9697778 C7.04,13.7633333 7.122,13.5657778 7.26777778,13.4197778 L11,9.68777778 C11.3037778,9.384 11.796,9.384 12.1,9.68777778 C12.4037778,9.99155556 12.4037778,10.484 12.1,10.7877778 L9.69555556,13.192 L18.8177778,13.192 C19.2473333,13.192 19.5955556,13.5402222 19.5955556,13.9697778 C19.5955556,14.3993333 19.2473333,14.7475556 18.8177778,14.7475556 L18.8177778,14.7475556 Z M15.04,5.66666667 L8.59555556,5.66666667 L8.59555556,4.77777778 L10.5955556,4.77777778 C11.0251111,4.77777778 11.3733333,4.42933333 11.3733333,4 L11.3733333,3.88888889 C11.3733333,3.70511111 11.5228889,3.55555556 11.7066667,3.55555556 C11.8904444,3.55555556 12.04,3.70511111 12.04,3.88888889 L12.04,4 C12.04,4.42933333 12.3882222,4.77777778 12.8177778,4.77777778 L15.04,4.77777778 L15.04,5.66666667 Z M19.6355556,5.22222222 C19.6355556,4.79266667 19.2871111,4.44444444 18.8577778,4.44444444 L16.5955556,4.44444444 L16.5955556,4 C16.5955556,3.57044444 16.2473333,3.22222222 15.8177778,3.22222222 L13.474,3.22222222 C13.204,2.50866667 12.5135556,2 11.7066667,2 C10.8997778,2 10.2093333,2.50866667 9.93933333,3.22222222 L7.81777778,3.22222222 C7.38822222,3.22222222 7.04,3.57044444 7.04,4 L7.04,4.44444444 L4.77777778,4.44444444 C4.34844444,4.44444444 4,4.79266667 4,5.22222222 L4,21.2222222 C4,21.6515556 4.34844444,22 4.77777778,22 L18.8577778,22 C19.2871111,22 19.6355556,21.6515556 19.6355556,21.2222222 L19.6355556,17.4815556 C19.6355556,17.052 19.2871111,16.7037778 18.8577778,16.7037778 C18.4282222,16.7037778 18.08,17.052 18.08,17.4815556 L18.08,20.4444444 L5.55555556,20.4444444 L5.55555556,6 L7.04,6 L7.04,6.44444444 C7.04,6.87377778 7.38822222,7.22222222 7.81777778,7.22222222 L15.8177778,7.22222222 C16.2473333,7.22222222 16.5955556,6.87377778 16.5955556,6.44444444 L16.5955556,6 L18.08,6 L18.08,10.5184444 C18.08,10.9477778 18.4282222,11.2962222 18.8577778,11.2962222 C19.2871111,11.2962222 19.6355556,10.9477778 19.6355556,10.5184444 L19.6355556,5.22222222 Z" id="Fill-1"></path>
</svg>