<svg xmlns="http://www.w3.org/2000/svg" viewBox="0 0 24 24">
  <path class="a" d="M24.36,12c-.41.35-.54-.05-.76-.16-.16.22-.08.41-.05.6a7.15,7.15,0,0,1,0,3.47c-.19.76-.41,1.54-.54,2.3a5.59,5.59,0,0,1-2.22,3.25A9,9,0,0,1,17,23.31a9.56,9.56,0,0,0-1.25.41,4.72,4.72,0,0,1-2.87.11c-.84-.24-1.71-.41-2.55-.62A10.39,10.39,0,0,1,5.27,20.5C4,19.25,2.78,18,1.59,16.71a6.3,6.3,0,0,1-.84-1.35A5.79,5.79,0,0,1,0,11.86c.08-.51.05-1,.11-1.54A8.47,8.47,0,0,1,.83,7.61a27.66,27.66,0,0,1,2-4.25A5.86,5.86,0,0,1,6.16.62C6.79.41,7.41.24,8,.08A3.64,3.64,0,0,1,9,0c1,.05,2,.14,3,.22A10.37,10.37,0,0,1,16.7,1.79c1.22.76,2.41,1.52,3.55,2.38A9.82,9.82,0,0,1,24,9.1a9.35,9.35,0,0,1,.27,1.52C24.28,11.16,24.3,11.62,24.36,12ZM2,9.18c-.27.22-.19.54-.19.84a7.76,7.76,0,0,0,.05,3.06q.32.93.73,1.87a2.15,2.15,0,0,0,.38.49,2.08,2.08,0,0,0-.22-.76,5.62,5.62,0,0,1-.62-2c-.05-.46-.05-.95-.11-1.41A2.2,2.2,0,0,0,1.83,10c.08-.3.14-.57.22-.87s.16-.62.22-.92A4.56,4.56,0,0,0,2.89,6.2c-.24.49-.43,1-.65,1.52-.05.19-.19.38,0,.54A.89.89,0,0,0,2,9.18Zm19.33,2.3a6,6,0,0,0-.65-2.68c-.35-.68-.79-1.33-1.14-2a7.05,7.05,0,0,0-3-2.68c-.92-.51-1.87-1-2.79-1.44a3.88,3.88,0,0,0-2.68-.54c-.32.08-.68.08-1,.14a6.78,6.78,0,0,0-2.57.89c-.62.41-1.22.89-1.81,1.35a2.76,2.76,0,0,0-1,1.25L4.16,7.55a3.54,3.54,0,0,0-.3,1.14c0,1,0,1.95.05,2.9A6,6,0,0,0,5.08,15a12.3,12.3,0,0,0,4,3.79c1,.6,2,1.19,3,1.87a3.51,3.51,0,0,0,2,.7c.49,0,1,.08,1.49.11a3.37,3.37,0,0,0,3-1.08,2.51,2.51,0,0,1,.38-.38,2.4,2.4,0,0,0,1-2.08,1.15,1.15,0,0,1,.05-.3l.24-3.09a2.62,2.62,0,0,0-.08-.62q-.16.08-.16.16a3.85,3.85,0,0,1-1.27,2.3c-.87.79-1.76,1.54-2.63,2.33a3.13,3.13,0,0,1-2.3.81,20,20,0,0,1-2.17-.35A6.31,6.31,0,0,1,10,18.84a9.79,9.79,0,0,1-2.9-2.17,14.34,14.34,0,0,1-2.17-3.52A4,4,0,0,1,5,9.45a2.63,2.63,0,0,0,.27-.89A4.84,4.84,0,0,1,8,4.74a11.78,11.78,0,0,1,5.74-1.49,3.54,3.54,0,0,1,2,.68,5.91,5.91,0,0,1,.57.6c.43.46.87.92,1.27,1.41s.89,1.16,1.35,1.73c.54.73,1.14,1.44,1.62,2.19A7.94,7.94,0,0,1,21.38,11.48Zm-12,5.36a5.31,5.31,0,0,0,2.25,1.41c.81.22,1.68.32,2.52.46a1.7,1.7,0,0,0,1.25-.3,9.77,9.77,0,0,0,2.17-1.92,3.55,3.55,0,0,0,.87-3c-.11-.68-.22-1.33-.38-2-.27-.95-.6-1.9-.89-2.84a2.31,2.31,0,0,0-.81-1.19,9.67,9.67,0,0,1-1-.81,4.44,4.44,0,0,0-2.17-.92,8.73,8.73,0,0,0-4.25.46,2,2,0,0,0-1.08,1c-.3.49-.57,1-.87,1.49a2.67,2.67,0,0,0-.32.76,1.75,1.75,0,0,0,.16,1.41A1.86,1.86,0,0,0,7.19,10a2.28,2.28,0,0,1,.87-1.3,9.42,9.42,0,0,1,1.38-.92A4.25,4.25,0,0,1,11.55,7c.46,0,.92.08,1.35.05a1.25,1.25,0,0,1,1.19.68,11.07,11.07,0,0,0,1.14,1.57,11.35,11.35,0,0,1,1.6,2.19,5.74,5.74,0,0,1,.81,2.27,2.36,2.36,0,0,1-.24,1.44A5.26,5.26,0,0,1,15.18,17a1.45,1.45,0,0,1-1.16.08A3.36,3.36,0,0,0,12.55,17a6.34,6.34,0,0,1-2.76-.16A1.79,1.79,0,0,0,9.39,16.84Zm3.47-5.5a1.58,1.58,0,0,1,.81,2.17,4.45,4.45,0,0,1-.38.6,1.58,1.58,0,0,1-1.44.68,3,3,0,0,1-1.62-.65,7.31,7.31,0,0,1-1.9-1.87A3.68,3.68,0,0,0,8,11.94c-.32.62-.32.76.11,1.19.22.22.43.41.65.6a17.07,17.07,0,0,0,3.79,2.19,3.6,3.6,0,0,0,2.49.14c.43-.11.51-.19.54-.65a4.56,4.56,0,0,0-.46-2.22C14.64,12,14,11,13.5,9.88A1.94,1.94,0,0,0,12.28,8.8,10.68,10.68,0,0,0,11,8.42,1.47,1.47,0,0,0,9.39,9c-.22.3-.41.6-.62.87a1.06,1.06,0,0,0-.05,1.22,6.68,6.68,0,0,0,2.49,2.71A1.78,1.78,0,0,0,12,14a1,1,0,0,0,1.06-1.19C13,12.4,12.93,11.91,12.85,11.34Zm-6.34,7.8a1.2,1.2,0,0,0,.14.24,10.16,10.16,0,0,0,5.06,3c.84.22,1.68.43,2.55.62a1.87,1.87,0,0,0,.87,0c.92-.27,1.81-.57,2.71-.87a6.49,6.49,0,0,0,2.41-1.46,1.78,1.78,0,0,0,.57-1.27l-1,1a7,7,0,0,1-6.06,2,2.22,2.22,0,0,0-.6-.05,4.39,4.39,0,0,1-3-1,14,14,0,0,0-2.82-1.65ZM3.37,5.23a.21.21,0,0,0,.11.05c.32-.3.62-.6.95-.87s.76-.51,1.11-.76.68-.54,1-.81.76-.49,1.16-.73.81-.24,1.16-.62a2.91,2.91,0,0,0-.57-.11,5.59,5.59,0,0,0-2.57.32,1.79,1.79,0,0,0-.89.65q-.65,1-1.22,2.11A4.94,4.94,0,0,0,3.37,5.23Zm4.31,8.53a1.56,1.56,0,0,0,.79,1.84,6.09,6.09,0,0,0,2.73.84,1.28,1.28,0,0,0,.38-.14c-.73-.43-1.38-.79-2-1.19S8.36,14.24,7.68,13.75ZM13,4.49c-1.22-.73-4.36,0-4.9,1,.81-.22,1.6-.43,2.41-.62S12.17,4.74,13,4.49ZM21.7,16h.11a2.85,2.85,0,0,0,0-1.9Z"/>
</svg>
