<svg viewBox="0 0 24 24" version="1.1" xmlns="http://www.w3.org/2000/svg" xmlns:xlink="http://www.w3.org/1999/xlink">
    <path d="M16.6361659,5.25433554 C16.9827527,5.38763815 17.2760184,5.52094076 17.5959447,5.65424337 C17.8625499,5.76088546 18.0225131,5.94750912 17.969192,6.26743539 C17.915871,6.58736165 17.6226052,6.61402218 17.3826605,6.61402218 C16.796129,6.6406827 16.2629186,6.45405904 15.9429923,5.9208486 C15.5964055,5.38763815 15.3298003,4.80110666 15.0365346,4.24123569 C14.956553,4.08127256 15.009874,3.86798838 15.0365346,3.68136473 C15.4097819,2.42832018 16.0229739,1.36189929 17.1693763,0.69538623 C17.1960369,0.69538623 17.1960369,0.668725708 17.2226974,0.668725708 C17.6759263,0.428781007 18.0758341,0.0288731733 18.529063,0.00221265098 C19.3288787,-0.0244478713 20.1286943,0.188836307 20.7952074,0.69538623 C21.0084916,0.855349364 21.2484363,1.04197302 21.488381,1.12195459 C22.3948387,1.38855981 22.7414255,2.13505443 23.0613518,2.85488854 C23.327957,3.44142003 23.4879201,4.05461204 23.5945622,4.69446457 C23.6745438,5.12103293 23.5945622,5.57426181 23.5412412,6.02749069 C23.4345991,7.20055367 22.8214071,8.0803509 21.9149493,8.800185 C21.1417942,9.41337702 20.3952995,10.026569 19.6221444,10.6131005 C18.2624578,11.6528609 16.7161475,12.2927134 15.0365346,12.5859792 C13.9167926,12.7726028 12.7970507,12.9059054 11.6506482,12.8525844 C11.0907773,12.8259239 10.5042458,12.985887 9.94437481,13.039208 C9.22454071,13.1191896 8.50470661,13.1725107 7.78487251,13.2258317 C7.14501997,13.2791527 6.50516744,13.3591343 5.89197542,13.4124554 C5.46540707,13.4391159 5.03883871,13.4657764 4.61227035,13.4391159 C3.91909678,13.4124554 3.25258372,13.3591343 2.55941014,13.3324738 C1.54631029,13.3324738 0.879797235,12.7992633 0.239944701,11.9194661 C0.453228879,11.9194661 0.559870968,11.8928056 0.693173579,11.8928056 C2.10618126,11.9461266 3.51918894,12.2660529 4.95885714,11.9727872 C5.33210446,11.8928056 5.73201229,11.9461266 6.1052596,11.8928056 C7.0650384,11.812824 8.02481721,11.7061819 8.95793549,11.6262004 C9.27786175,11.5995398 9.59778802,11.4928978 9.91771429,11.5195583 C11.330722,11.6262004 12.6904086,11.3862557 14.0500952,11.1196504 C15.3564608,10.8797057 16.5295238,10.3731558 17.5692842,9.54667963 C18.4757419,8.82684553 19.3288787,8.05369038 20.2619969,7.41383785 C20.6352442,7.14723262 20.9551705,6.90728792 21.1684547,6.53404061 C21.9682704,5.17435397 21.9682704,3.73468577 21.4083994,2.29501757 C21.3817389,2.215036 21.2750968,2.10839391 21.1951152,2.05507287 C20.5819232,1.57518347 19.5688234,1.57518347 18.9289708,2.02841234 C18.6623656,2.215036 18.3957604,2.40165966 18.1291552,2.56162279 C17.3826605,3.12149376 16.7161475,4.24123569 16.6361659,5.25433554 Z M17.969192,19.517715 C17.7292473,19.571036 17.5426237,19.6510176 17.3826605,19.6243571 C16.4228817,19.4643939 15.1431767,20.9573832 15.7830292,22.1837672 C15.8630108,22.3170698 15.9963134,22.4770329 16.1562765,22.5036935 C16.5028633,22.5570145 16.9027711,22.6369961 17.2226974,22.5570145 C17.9425315,22.3703908 18.6623656,22.1571067 19.3288787,21.8638409 C20.1020338,21.5439147 20.6619048,20.9573832 21.0084916,20.184228 C21.2750968,19.6243571 21.5683625,19.0911466 21.6483441,18.4512941 C21.7816467,17.3582127 21.488381,16.8516627 20.4486206,16.5050759 C19.4888418,16.1851497 18.4757419,16.1318286 17.4893026,16.1318286 C17.1693763,16.1318286 16.8494501,16.1051681 16.5295238,16.1051681 C16.2095975,16.1051681 15.8896713,16.1051681 15.569745,16.1318286 C14.2900399,16.2384707 13.0369954,16.3451128 11.7572903,16.4517549 C11.5440061,16.4784154 11.330722,16.4784154 11.1174378,16.5050759 C10.4775853,16.5850575 9.83773272,16.6650391 9.22454071,16.7450206 C8.95793549,16.7716812 8.66466974,16.7716812 8.39806452,16.8783233 C7.59824885,17.1449285 6.79843318,17.118268 5.99861751,17.0649469 C5.33210446,17.0116259 4.63893088,17.0382864 3.97241782,17.118268 C3.35922581,17.1982495 2.79935484,17.1982495 2.21282335,16.9849653 C1.83957604,16.8250022 1.4396682,16.7183601 1.06642089,16.558397 C0.746494624,16.4250944 0.479889401,16.1851497 0.34658679,15.8385629 C0.399907834,15.7852418 0.453228879,15.7319208 0.479889401,15.7319208 C1.38634716,15.8918839 2.29280492,15.7852418 3.2259232,15.6785998 C3.86577573,15.6252787 4.50562827,15.6785998 5.1454808,15.6785998 C5.57204916,15.6785998 5.99861751,15.5986182 6.39852535,15.5452971 C6.98505684,15.4653156 7.57158833,15.332013 8.15811982,15.2253709 C8.55802765,15.1720498 8.95793549,15.1187288 9.35784332,15.0654077 C9.91771429,15.0120867 10.4509247,14.9854262 11.0107957,14.9321051 C12.1038771,14.825463 13.170298,14.718821 14.2633794,14.6121789 C14.5299846,14.5855183 14.7699293,14.5588578 15.0365346,14.5588578 C15.8896713,14.5855183 16.742808,14.6388394 17.5959447,14.6921604 C19.2488971,14.7988025 20.7418863,15.4119945 22.101573,16.3717733 C22.9547097,16.9583048 23.1413333,17.8381021 23.274636,18.7712203 C23.4079386,19.8909623 22.9280492,20.8507411 22.2881966,21.7305383 C22.1815545,21.8905014 21.9949309,21.9971435 21.8349677,22.0771251 C20.981831,22.583675 20.0487128,22.9835829 19.2488971,23.5701143 C18.3690999,24.2099669 16.5828449,24.1033248 15.8363502,23.4634723 C15.0898556,22.8236197 14.5033241,22.0771251 13.9701137,21.30397 C13.6768479,20.8774016 13.6768479,20.3175306 14.0500952,19.8109807 C14.2633794,19.517715 14.5033241,19.2511097 14.7699293,18.9845045 C15.4631029,18.2913309 16.2895791,18.1580283 17.1427158,18.6379177 C17.4359816,18.8245414 17.8358894,18.9311835 17.969192,19.517715 Z M2.78252246e-15,6.96060897 C0.186623656,6.93394844 0.34658679,6.8806274 0.533210446,6.90728792 C1.1997235,6.98726949 1.86623656,7.17389314 2.55941014,7.20055367 C3.43920737,7.25387471 4.34566513,7.28053523 5.25212289,7.20055367 C6.02527804,7.14723262 6.77177266,7.01393001 7.51826728,6.82730636 C8.69133026,6.50738009 9.65110907,5.84086703 10.21098,4.74778562 C10.3709432,4.42785935 10.4242642,4.02795152 10.4509247,3.6547042 C10.4775853,3.28145689 10.3976037,2.88154906 10.3442826,2.50830175 C10.2909616,2.16171496 10.1309985,2.05507287 9.75775116,2.08173339 C9.25120123,2.13505443 8.55802765,2.61494383 8.26476191,3.14815428 C8.42472504,3.4147595 8.58468817,3.68136473 8.71799079,3.97463047 C8.82463288,4.26789622 8.71799079,4.42785935 8.39806452,4.42785935 C8.05147773,4.42785935 7.70489094,4.40119883 7.46494624,4.08127256 L6.74511214,3.20147532 C6.53182796,2.9348701 6.50516744,2.61494383 6.585149,2.29501757 C6.87841475,1.12195459 8.39806452,0.348799441 9.49114593,0.882009886 C10.2643011,1.2552572 11.0641167,1.65516503 11.6239877,2.37499913 C11.7039693,2.48164122 11.8639324,2.61494383 11.8905929,2.72158592 C12.1038771,3.6547042 12.3971429,4.58782248 12.1038771,5.54760129 C11.943914,6.10747225 11.6239877,6.56070113 11.1440983,6.96060897 C10.0776774,7.81374568 8.8512934,8.26697456 7.51826728,8.37361665 C6.95839632,8.42693769 6.37186483,8.48025874 5.81199386,8.5602403 C4.61227035,8.72020344 3.43920737,8.48025874 2.23948387,8.34695613 C1.54631029,8.26697456 0.986439324,7.97370881 0.479889401,7.54714046 C0.319926267,7.41383785 0.159963134,7.28053523 8.8817842e-16,7.14723262 C2.78252246e-15,7.06725106 2.78252246e-15,7.01393001 2.78252246e-15,6.96060897 Z" id="Combined-Shape" transform="translate(11.814200, 12.000000) rotate(-180.000000) translate(-11.814200, -12.000000) "></path>
</svg>