<svg width="24px" height="24px" viewBox="0 0 24 24" version="1.1" xmlns="http://www.w3.org/2000/svg" xmlns:xlink="http://www.w3.org/1999/xlink">
            <path d="M1.74328914,11.4149365 C1.68977683,11.5487173 1.60950837,11.6289858 1.58275222,11.7360104 C1.4222153,12.190865 1.58275222,12.6189634 1.77004529,13.0203057 C2.06436297,13.6356972 2.49246142,14.117308 3.08109679,14.4918941 C3.29514601,13.6356972 2.57272988,11.9768158 1.74328914,11.4149365 M15.8172932,22.1173977 C15.2016341,21.0471516 12.3119696,19.2812455 11.2149673,19.2812455 C11.857115,20.3514916 14.7735357,22.1441539 15.8172932,22.1173977 M6.61290899,6.86639052 C6.98749513,6.49180438 7.09451974,6.11721824 7.04100744,5.71587594 C7.01425128,5.47507057 6.98749513,5.23426519 6.98749513,4.99345981 C6.98749513,4.48509291 6.85371436,4.00348215 6.58615283,3.54862755 C6.42561592,3.25430987 6.23832285,2.95999218 6.05102977,2.69243065 C5.78346824,2.29108836 5.4088821,1.99677067 4.98078365,1.83623376 C4.55268521,1.67569684 4.25836752,1.8094776 4.0978306,2.2108199 C3.85702523,2.79945527 3.85702523,3.38809063 4.17809906,3.92321369 C4.60619751,4.61887367 5.03429596,5.31453365 5.54266287,5.95668132 C5.83698055,6.33126746 6.23832285,6.57207284 6.61290899,6.86639052 M16.8337594,13.2611111 C16.8337594,13.3948919 16.8337594,13.4751603 16.8605156,13.5554288 C17.101321,14.1708203 17.3153702,14.812968 17.636444,15.4016033 C18.0110302,16.1240195 18.5461532,16.739411 19.1883009,17.2210217 C19.7501801,17.6491202 20.3658392,17.8364133 21.0879878,17.5956079 C21.3823055,17.4885833 21.6766231,17.4618271 21.9441847,17.3815587 C22.5595762,17.2210217 22.7201131,16.8196794 22.3187708,16.3113125 C22.1049891,16.043751 21.8639162,15.7494333 21.5698661,15.5621403 C20.5261086,14.8397241 19.4558624,14.1440641 18.2785917,13.6624534 C17.8504933,13.4484042 17.3956387,13.2343549 16.8337594,13.2611111 M15.8972941,6.94665898 C15.8972941,6.49180438 15.951074,6.09046209 15.9240502,5.68911979 C15.8705379,4.56536136 15.4959518,3.54862755 15.0146086,2.53189373 C14.6932672,1.86298991 14.211924,1.38137915 13.5962649,1.00679301 C12.9273611,0.578694564 12.552775,0.739231482 12.2852134,1.48840377 C11.9106273,2.61216219 12.2317011,3.60213986 12.8741164,4.48509291 C13.6230211,5.47507057 14.6397549,6.1974867 15.6564887,6.89314668 C15.710001,6.91990283 15.7367572,6.91990283 15.8972941,6.94665898 M7.70991126,9.91659197 C7.84369203,11.0403504 7.73666741,12.0303281 8.05774125,12.9935496 C8.45908355,14.0905518 8.88718199,15.1875541 9.28852429,16.2845564 C9.44906121,16.6858987 9.71662274,16.8731918 10.1447212,17.0069725 C11.6163096,17.3815587 13.1146542,17.8096571 14.3721934,18.7193663 C15.0146086,19.1742209 15.6297326,19.6558317 16.2186355,20.1641986 C16.8070033,20.6458093 17.1280771,21.3414693 17.5294194,21.9568608 C17.2618579,22.4384716 17.0478087,22.8933262 16.7802471,23.3481808 C16.405661,23.9635723 16.057831,24.0705969 15.3354149,23.9635723 C14.7735357,23.8833038 14.1849003,23.8297915 13.6497772,23.6157423 C12.8470926,23.2946685 12.1514327,22.8398139 11.5627973,22.1976662 C11.2417235,21.8230801 10.8403812,21.4752501 10.4390389,21.2076885 C9.95742812,20.8866147 9.63635428,20.4852724 9.3420366,20.0304178 C9.07447507,19.6023194 8.86042584,19.1474648 8.59286431,18.7193663 C8.51259585,18.5855855 8.35205893,18.3982925 8.19152202,18.3715363 C7.1747882,18.1842433 6.18481054,17.9166817 5.19483288,17.5153394 C5.16807672,17.6758763 5.14132057,17.8096571 5.16807672,17.9166817 C5.24834518,18.5588294 5.32861364,19.2009771 5.4088821,19.8698809 C5.51590671,20.7260778 5.94400516,21.3949816 6.55939668,21.9301047 C7.22830051,22.51874 7.33532512,22.6525208 6.7199336,23.5889862 C6.39885976,24.0705969 6.13129823,24.1241092 5.67644363,23.7495231 C4.76673443,23.0538631 4.15134291,22.1976662 4.0443183,20.9936393 C3.93729369,19.7628563 3.69648831,18.5588294 3.53595139,17.3280464 C3.48243908,16.9534602 3.32190217,16.739411 2.97407218,16.5788741 C2.38543681,16.3380687 1.8235576,16.043751 1.39545915,15.5621403 C0.753311476,14.8664803 0.244944568,14.0905518 0.0308953443,13.1540865 C0.00413919128,13.0203057 -0.0226169617,12.8330126 0.0308953443,12.725988 C0.43223764,11.8162788 0.806823782,10.9065696 1.74328914,10.3714466 C2.3319245,10.0236166 2.59948603,10.0236166 3.05434064,10.5319835 C3.45568293,10.9868381 3.80351292,11.4684488 4.15134291,11.9500596 C4.23161137,12.0570842 4.31187983,12.2176211 4.33863598,12.3514019 C4.47241675,13.1273303 4.63295366,13.9032588 4.71322212,14.6791872 C4.76673443,15.1340418 4.87375904,15.4283595 5.3553698,15.5888964 C5.94400516,15.7761895 6.50588438,16.0169949 7.09451974,16.2310441 C7.14803205,16.2578002 7.22830051,16.2310441 7.36208127,16.2578002 C7.33532512,16.0705072 7.30856897,15.9367264 7.25505666,15.8029456 C7.1212759,15.4283595 6.96073898,15.0270172 6.82695821,14.6524311 C6.7199336,14.3581134 6.61290899,14.0370395 6.58615283,13.7427219 C6.47912822,12.7795003 6.39885976,11.8162788 6.3185913,10.8530573 C6.29183515,10.3982027 6.3185913,9.97010427 6.34534746,9.51524967 C6.37210361,9.19417584 6.265079,9.00688277 5.99751747,8.8195897 C5.38212595,8.36473509 4.82024674,7.85636819 4.23161137,7.37475743 C4.12458676,7.26773282 3.99080599,7.18746436 3.93729369,7.0536836 C3.50919524,6.250999 3.05434064,5.47507057 2.65299834,4.64562982 C2.51921758,4.35131214 2.46570527,4.00348215 2.49246142,3.68240831 C2.57272988,2.61216219 3.13460909,1.83623376 4.0443183,1.3011107 C4.41890444,1.08706147 4.79349058,0.873012248 5.14132057,0.658963023 C5.48915056,0.444913799 5.8637367,0.418157646 6.21156669,0.63220687 C6.69317745,0.926524554 7.1212759,1.27435454 7.41559358,1.7559653 C7.97747279,2.6656745 8.27179048,3.65565216 8.21827817,4.67238598 C8.19152202,5.39480211 7.95071664,6.09046209 7.81693587,6.81287822 C7.79017972,6.94665898 7.73666741,7.1071959 7.70991126,7.24097667 C7.65639896,7.58880666 7.76342357,7.82961203 8.05774125,8.04366126 C8.80691354,8.57878432 9.63635428,8.89985815 10.465795,9.22093199 C11.937651,9.7828112 13.435728,10.3714466 14.9073164,10.9333258 C15.0678533,10.9868381 15.2551464,11.0403504 15.4424395,11.0938627 C15.4959518,10.8798135 15.5762203,10.7192766 15.6029764,10.5587396 C15.710001,9.88983582 15.7902695,9.22093199 15.8705379,8.55202816 C15.8972941,8.31122279 15.8972941,8.09717356 15.6029764,8.0169051 C14.5327303,7.64231896 13.783558,6.81287822 12.9273611,6.11721824 C12.1514327,5.47507057 11.6430658,4.64562982 11.3219919,3.73592062 C11.0009181,2.82621142 11.1882112,1.94325837 11.7233342,1.16732993 C11.9641396,0.819499941 12.3119696,0.551938411 12.6330434,0.284376881 C13.1681665,-0.116965414 13.7032895,-0.0634531083 14.2919249,0.257620728 C15.3354149,0.819499941 15.8172932,1.7559653 16.2186355,2.77269911 C16.405661,3.22755371 16.5126856,3.68240831 16.6732225,4.16401907 C16.9675402,5.07372827 16.9140279,6.01019363 16.9942964,6.94665898 C16.9942964,7.13395205 17.0213201,7.32124513 17.0213201,7.5085382 C17.5294194,7.72258742 18.0377863,7.66907512 18.5193971,7.66907512 C19.4826186,7.66907512 20.4190839,7.64231896 21.3823055,7.66907512 C21.7568916,7.66907512 22.1314777,7.77609973 22.4793077,7.88312434 C22.8271377,7.99014895 23.0946992,8.23095433 23.1752353,8.63229662 C23.0414545,8.63229662 22.9341623,8.65905278 22.8271377,8.63229662 C22.1314777,8.28446663 21.3823055,8.17744202 20.606377,8.20419818 C19.6431555,8.23095433 18.6531778,8.17744202 17.7167125,8.39149125 C17.4759071,8.44500355 17.2083456,8.39149125 16.8875393,8.39149125 C16.7802471,9.3279566 16.486197,10.2109097 16.5661979,11.147375 C16.5929541,11.5219612 16.8337594,11.5754735 17.101321,11.7092542 C17.9577854,12.0838404 18.8672271,12.4316704 19.6969354,12.9132811 C21.0077193,13.6624534 22.0779654,14.7059434 23.1482116,15.7761895 C23.4427968,16.0705072 23.5227977,16.4183372 23.2819923,16.7929233 C23.1752353,16.9534602 23.1214554,17.1675094 23.0414545,17.3548025 C22.8271377,18.0237063 22.3725507,18.4250486 21.7301354,18.6390979 C21.3023046,18.7996348 20.8471824,18.9334155 20.4190839,19.0939525 C19.9374732,19.2812455 19.4826186,19.2009771 19.0010078,19.013684 C17.984274,18.6123417 17.2618579,17.8631694 16.7267348,16.9534602 C16.057831,15.8564579 15.6297326,14.6524311 15.5497317,13.3681357 C15.5227079,12.9400373 15.362171,12.7527442 14.9608287,12.6457196 C12.9541173,12.1105965 11.0276742,11.3614242 9.12798737,10.5319835 C8.69988892,10.2376658 8.27179048,10.103885 7.70991126,9.91659197" id="Fill-1"></path>
        </svg>