<svg version="1.1" id="Layer_1" xmlns="http://www.w3.org/2000/svg" xmlns:xlink="http://www.w3.org/1999/xlink" x="0px" y="0px"
	 viewBox="0 0 24 24" style="enable-background:new 0 0 24 24;" xml:space="preserve">
<path id="Combined-Shape" class="st0" d="M16.653,7.756c0.507-0.347,0.961-0.641,1.415-0.961c0.908-0.641,1.788-1.335,2.696-1.949
	c0.534-0.347,1.094-0.667,1.682-0.934c0.267-0.107,0.614-0.107,0.881-0.027c0.507,0.16,0.587,0.721,0.187,1.041
	c-1.255,1.041-2.509,2.082-3.817,3.043c-0.507,0.4-1.148,0.641-1.735,0.934c-0.32,0.16-0.561,0.027-0.747-0.214
	C17.027,8.423,16.867,8.129,16.653,7.756z M14.411,14.962c0.187,0.24,0.4,0.454,0.561,0.694c1.068,1.788,2.135,3.577,2.989,5.472
	c0.24,0.561,0.133,1.121,0.026,1.655c-0.026,0.133-0.24,0.294-0.4,0.347c-0.053,0.027-0.24-0.107-0.32-0.214
	c-0.854-1.415-1.708-2.829-2.536-4.271c-0.347-0.614-0.427-1.281-0.4-2.002c0.027-0.534-0.026-1.094-0.053-1.628
	C14.358,15.016,14.384,14.989,14.411,14.962z M7.578,14.696c0.08,0.107,0.107,0.107,0.107,0.133
	c-0.534,1.708-1.281,3.23-3.123,3.924c-0.534,0.214-1.041,0.427-1.575,0.667c-0.294,0.133-0.534,0.133-0.774-0.107
	c-0.24-0.24-0.374-0.534-0.214-0.827c0.214-0.374,0.427-0.721,0.721-1.041c0.827-0.854,1.922-1.255,2.936-1.842
	c0.4-0.24,0.827-0.427,1.255-0.641C7.124,14.856,7.364,14.776,7.578,14.696z M20.043,12.56c0.32,0.08,0.934,0.24,1.521,0.427
	c0.24,0.08,0.534,0.187,0.641,0.374c0.24,0.427,0.427,0.881,0.534,1.361c0.08,0.32-0.294,0.587-0.694,0.534
	c-1.521-0.214-2.989-0.667-4.377-1.335c-0.4-0.214-0.694-0.988-0.587-1.441c0.08-0.347,0.374-0.427,0.667-0.374
	C18.441,12.213,19.109,12.373,20.043,12.56z M14.491,6.608c-0.427-0.454-0.587-0.801-0.534-1.308c0.08-0.641,0-1.281,0.053-1.895
	c0.107-0.854,0.24-1.735,0.427-2.562c0.107-0.48,0.56-0.694,1.041-0.667c0.454,0.027,0.934,0.294,1.041,0.721
	c0.08,0.374,0.16,0.827,0.053,1.174c-0.454,1.201-0.988,2.349-1.495,3.523C14.945,5.887,14.731,6.181,14.491,6.608z M11.048,16.003
	c-0.027,1.548-0.133,3.043-0.827,4.431c-0.4,0.827-0.614,1.788-0.908,2.669c-0.053,0.16-0.08,0.32-0.133,0.48
	c-0.08,0.24-0.267,0.48-0.507,0.4c-0.187-0.053-0.427-0.294-0.454-0.454c-0.027-0.587-0.053-1.201,0.08-1.762
	c0.32-1.174,0.774-2.296,1.361-3.336c0.32-0.561,0.534-1.148,0.827-1.735C10.647,16.457,10.861,16.244,11.048,16.003z M10.22,5.487
	C9.58,5.834,9.526,5.834,9.179,5.433C8.031,4.179,6.964,2.871,6.136,1.376C5.843,0.842,5.869,0.495,6.243,0.175
	c0.347-0.267,0.854-0.24,1.201,0.16c0.267,0.32,0.48,0.694,0.694,1.068C8.832,2.738,9.526,4.099,10.22,5.487z M7.684,7.729
	C7.658,8.663,6.937,8.93,6.136,8.636c-1.041-0.4-2.109-0.854-3.15-1.281c-0.32-0.133-0.667-0.294-0.908-0.534
	c-0.4-0.4-0.32-0.667,0.187-0.908C2.693,5.7,3.093,5.674,3.547,5.86c1.281,0.561,2.616,0.988,3.817,1.708
	C7.471,7.595,7.578,7.676,7.684,7.729z M7.071,11.279C6.457,12,5.816,12.533,4.962,12.613c-1.148,0.107-2.322,0.133-3.47,0.16
	c-0.374,0.027-0.641-0.4-0.4-0.747c0.267-0.4,0.587-0.827,1.121-0.908c1.441-0.187,2.883-0.347,4.297,0
	C6.644,11.145,6.777,11.199,7.071,11.279z"/>
</svg>
