<svg width="24px" height="24px" viewBox="0 0 24 24" version="1.1" xmlns="http://www.w3.org/2000/svg" xmlns:xlink="http://www.w3.org/1999/xlink">
            <path d="M23.9488372,0.362790698 C24.0046512,1.06046512 24.0883721,1.61860465 24.0883721,2.17674419 C24.0883721,3.29302326 24.0883721,4.40930233 24.0604651,5.5255814 C24.0604651,5.97209302 23.9767442,6.41860465 23.9488372,6.86511628 C23.9209302,7.11627907 23.9488372,7.36744186 23.9488372,7.61860465 C23.9488372,7.98139535 23.9767442,8.34418605 23.9767442,8.70697674 C23.9767442,9.01395349 24.0046512,9.29302326 24.0046512,9.6 C23.9767442,10.0744186 23.9767442,10.5488372 23.8930233,10.9953488 C23.8372093,11.4139535 22.972093,11.7209302 22.6093023,11.4976744 C22.3581395,11.3302326 22.3581395,11.0790698 22.4139535,10.8837209 C22.5255814,10.4930233 22.4697674,10.1302326 22.3581395,9.73953488 C22.3302326,9.68372093 22.3023256,9.62790698 22.3023256,9.54418605 C22.3023256,8.62325581 22.3302326,7.70232558 22.3302326,6.78139535 C22.3302326,6 22.3023256,5.19069767 22.3023256,4.40930233 C22.3023256,3.34883721 22.3023256,2.31627907 22.3581395,1.25581395 C22.3581395,1.06046512 22.5813953,0.781395349 22.7767442,0.669767442 C23.1395349,0.558139535 23.5023256,0.502325581 23.9488372,0.362790698 Z M12.8139535,0.530232558 C12.9534884,0.948837209 13.1488372,1.33953488 13.2604651,1.78604651 C13.4,2.48372093 13.4837209,3.18139535 13.5953488,3.87906977 C13.6790698,4.4372093 13.7627907,4.96744186 13.8744186,5.5255814 C14.0976744,6.58604651 14.1813953,7.6744186 14.0976744,8.7627907 C14.0139535,9.54418605 13.9023256,10.3255814 13.7906977,11.1627907 C13.5953488,11.2465116 13.372093,11.3581395 13.1488372,11.4697674 C12.7023256,11.6372093 12.4511628,11.4418605 12.4511628,10.9674419 C12.4511628,9.73953488 12.4790698,8.51162791 12.4511628,7.31162791 C12.4232558,6.61395349 12.227907,5.91627907 12.144186,5.21860465 C12.0325581,4.15813953 11.9209302,3.09767442 11.8651163,2.0372093 C11.8372093,1.6744186 11.9767442,1.28372093 12.0883721,0.920930233 C12.172093,0.613953488 12.4232558,0.530232558 12.8139535,0.530232558 Z M8.90697674,1.36744186 C8.18139535,1.50697674 7.45581395,1.61860465 6.70232558,1.75813953 C6.59069767,1.78604651 6.47906977,1.81395349 6.39534884,1.81395349 C5.16744186,1.86976744 3.91162791,1.95348837 2.68372093,1.98139535 C2.37674419,1.98139535 2.06976744,1.89767442 1.7627907,1.81395349 C1.28837209,1.6744186 0.758139535,1.70232558 0.255813953,1.75813953 C-0.190697674,1.84186047 -0.441860465,1.70232558 -0.693023256,1.39534884 C-0.91627907,1.14418605 -0.860465116,0.920930233 -0.553488372,0.809302326 C-0.441860465,0.753488372 -0.330232558,0.725581395 -0.190697674,0.725581395 C0.479069767,0.641860465 1.17674419,0.530232558 1.84651163,0.474418605 C2.54418605,0.418604651 3.26976744,0.446511628 3.96744186,0.362790698 C5.8372093,0.111627907 7.73488372,0.223255814 9.60465116,0.334883721 C9.8,0.334883721 9.99534884,0.334883721 10.1906977,0.390697674 C10.4139535,0.446511628 10.5255814,0.613953488 10.3860465,0.809302326 C10.1627907,1.2 9.91162791,1.53488372 9.38139535,1.45116279 C9.24186047,1.42325581 9.0744186,1.45116279 8.93488372,1.45116279 C8.93488372,1.42325581 8.93488372,1.39534884 8.90697674,1.36744186 Z M20.4883721,0.474418605 C20.572093,1.17209302 20.7395349,1.81395349 20.6837209,2.48372093 C20.572093,3.76744186 20.7395349,4.99534884 20.7953488,6.25116279 C20.8511628,7.50697674 20.8232558,8.7627907 20.8232558,10.0465116 C20.8232558,10.4651163 20.2372093,10.8837209 19.8186047,10.772093 C19.5395349,10.6883721 19.344186,10.4930233 19.344186,10.1581395 C19.372093,9.6 19.4,9.04186047 19.372093,8.48372093 C19.3162791,7.28372093 19.2325581,6.08372093 19.1767442,4.91162791 C19.1488372,4.52093023 19.1767442,4.10232558 19.1767442,3.68372093 C19.1767442,3.34883721 19.2046512,2.98604651 19.2325581,2.65116279 C19.2883721,2.14883721 19.3162791,1.61860465 19.427907,1.14418605 C19.5674419,0.613953488 19.7348837,0.530232558 20.4883721,0.474418605 Z M6.47906977,10.827907 C6.14418605,10.855814 5.80930233,10.855814 5.44651163,10.8837209 C5.3627907,10.8837209 5.27906977,10.9116279 5.19534884,10.8837209 C3.35348837,10.5209302 1.51162791,10.4651163 -0.330232558,10.5209302 C-0.776744186,10.5488372 -0.972093023,10.3813953 -1,10.0186047 C-1,9.71162791 -0.91627907,9.48837209 -0.581395349,9.48837209 C0.0325581395,9.43255814 0.674418605,9.32093023 1.26046512,9.37674419 C2.76744186,9.54418605 4.24651163,9.46046512 5.75348837,9.34883721 C6.50697674,9.29302326 7.26046512,9.2372093 7.98604651,9.2372093 C8.37674419,9.2372093 8.79534884,9.26511628 9.18604651,9.34883721 C9.40930233,9.37674419 9.68837209,9.48837209 9.77209302,9.65581395 C9.91162791,9.9627907 9.52093023,9.9627907 9.38139535,10.1302326 C8.90697674,10.6883721 8.2372093,10.6604651 7.62325581,10.8 C7.26046512,10.8837209 6.86976744,10.855814 6.47906977,10.8837209 L6.47906977,10.827907 Z M2.15348837,23.6372093 C1.59534884,23.8046512 1.17674419,23.6372093 0.786046512,23.4139535 C0.339534884,21.0976744 0.144186047,18.7534884 0.423255814,16.3813953 C0.506976744,15.627907 0.451162791,14.8465116 0.451162791,14.0651163 C0.451162791,13.7023256 0.36744186,13.2837209 0.786046512,12.9209302 C0.897674419,13.1162791 1.06511628,13.255814 1.09302326,13.4511628 C1.23255814,14.0651163 1.4,14.6511628 1.45581395,15.2651163 C1.56744186,16.772093 1.62325581,18.3069767 1.73488372,19.8139535 C1.79069767,20.427907 1.95813953,21.0418605 2.01395349,21.655814 C2.09767442,22.3255814 2.09767442,22.9674419 2.15348837,23.6372093 Z M12.3953488,23.6093023 C12.3674419,23.4976744 12.2837209,23.3302326 12.255814,23.1627907 C12.227907,22.9395349 12.3116279,22.8 12.5348837,22.744186 C12.5627907,22.744186 12.5627907,22.744186 12.5906977,22.7162791 C13.455814,22.6046512 14.3209302,22.4651163 15.1860465,22.3813953 C16.1627907,22.2697674 17.1395349,22.2139535 18.1162791,22.1581395 C18.8697674,22.1302326 19.6232558,22.1023256 20.3488372,22.1023256 C20.8511628,22.1023256 21.3255814,22.1860465 21.827907,22.1860465 C22.5534884,22.1860465 23.2511628,22.3813953 23.9488372,22.6883721 C23.6418605,23.1906977 23.1953488,23.3023256 22.7209302,23.3302326 C21.744186,23.3860465 20.7674419,23.3581395 19.7627907,23.3860465 C18.8697674,23.4139535 17.9767442,23.4976744 17.0837209,23.5255814 C16.6930233,23.5534884 16.3023256,23.5813953 15.9395349,23.4976744 C14.8790698,23.2465116 13.8465116,23.4139535 12.8139535,23.6093023 C12.6744186,23.6372093 12.5627907,23.6372093 12.4232558,23.6651163 C12.4790698,23.6372093 12.4790698,23.6372093 12.3953488,23.6093023 Z M16.3860465,0.362790698 C16.8604651,3.68372093 17.2511628,7.00465116 17.2790698,10.4651163 C17.027907,10.4930233 16.8046512,10.5767442 16.5813953,10.5767442 C16.1906977,10.5767442 15.9674419,10.3255814 15.9674419,9.93488372 C15.9116279,8.62325581 15.855814,7.33953488 15.8,6.02790698 C15.744186,4.46511628 15.6325581,2.90232558 15.3534884,1.36744186 C15.2139535,0.558139535 15.5209302,0.279069767 16.3860465,0.362790698 Z M4.74883721,13.0883721 C5.19534884,15.5162791 5.39069767,17.9162791 5.4744186,20.344186 C5.50232558,21.0697674 5.44651163,21.7953488 5.41860465,22.5209302 C5.41860465,23.2465116 5.19534884,23.4697674 4.41395349,23.5813953 C4.24651163,23.2465116 4.1627907,22.8837209 4.19069767,22.4930233 C4.24651163,21.7674419 4.24651163,21.0418605 4.21860465,20.3162791 C4.1627907,18.7255814 4.05116279,17.1069767 3.99534884,15.5162791 C3.96744186,15.0139535 3.93953488,14.4837209 3.93953488,13.9813953 C3.96744186,13.3674419 4.07906977,13.255814 4.74883721,13.0883721 Z M-0.860465116,6.64186047 C-0.469767442,6.53023256 -0.106976744,6.3627907 0.28372093,6.33488372 C3.38139535,6.05581395 6.47906977,5.69302326 9.57674419,5.91627907 C9.63255814,5.91627907 9.68837209,5.94418605 9.74418605,5.94418605 C9.82790698,6.50232558 9.60465116,6.89302326 9.10232558,6.97674419 C8.87906977,7.00465116 8.62790698,7.00465116 8.40465116,7.00465116 C6.95348837,6.94883721 5.50232558,7.08837209 4.05116279,7.22790698 C2.73953488,7.33953488 1.42790698,7.33953488 0.144186047,7.39534884 C0.0604651163,7.39534884 -0.0511627907,7.39534884 -0.106976744,7.36744186 C-0.358139535,7.2 -0.609302326,7.00465116 -0.860465116,6.80930233 C-0.860465116,6.75348837 -0.860465116,6.69767442 -0.860465116,6.64186047 Z M12.6465116,20.8465116 C12.5627907,20.2046512 12.6744186,20.0372093 13.2325581,19.9534884 C14.544186,19.7581395 15.855814,19.5348837 17.1674419,19.4232558 C18.144186,19.3395349 19.1488372,19.3953488 20.1255814,19.3953488 C20.9906977,19.3953488 21.8837209,19.3953488 22.7488372,19.4232558 C23.055814,19.4232558 23.3348837,19.4511628 23.6418605,19.5069767 C23.8372093,19.5348837 23.9209302,19.7302326 23.8093023,19.8976744 C23.6418605,20.1488372 23.4465116,20.372093 23.1116279,20.372093 C22.0790698,20.4 21.0744186,20.427907 20.0418605,20.455814 C19.0651163,20.4837209 18.0883721,20.5116279 17.0837209,20.5674419 C16.6372093,20.5953488 16.1906977,20.6511628 15.744186,20.6790698 C15.4651163,20.7069767 15.1860465,20.6790698 14.9069767,20.7627907 C14.1813953,20.9581395 13.427907,20.9860465 12.6465116,20.8465116 Z M-0.441860465,3.9627907 C-0.469767442,3.34883721 -0.469767442,3.32093023 0.0325581395,3.26511628 C0.702325581,3.18139535 1.34418605,3.1255814 2.01395349,3.06976744 C4.35813953,2.84651163 6.70232558,2.79069767 9.0744186,2.93023256 C9.49302326,2.95813953 9.91162791,3.06976744 10.3023256,3.1255814 C10.1627907,3.82325581 9.91162791,4.04651163 9.29767442,4.04651163 C8.46046512,4.04651163 7.62325581,3.99069767 6.78604651,3.99069767 C5.8372093,3.99069767 4.91627907,4.04651163 3.96744186,4.0744186 C2.71162791,4.10232558 1.45581395,4.35348837 0.2,4.15813953 C0.088372093,4.13023256 -0.023255814,4.13023256 -0.106976744,4.10232558 C-0.218604651,4.04651163 -0.330232558,3.99069767 -0.441860465,3.9627907 Z M23.7534884,13.7302326 C23.5302326,13.8697674 23.3906977,13.9813953 23.2511628,14.0372093 C21.9395349,14.4837209 20.6,14.7627907 19.2325581,14.8186047 C18.172093,14.8744186 17.0837209,14.9023256 16.0232558,14.9581395 L15.9674419,14.9581395 L12.6744186,14.9581395 C12.4232558,14.427907 12.5069767,14.1209302 13.1209302,13.9813953 C13.8465116,13.8139535 14.572093,13.5906977 15.3255814,13.7581395 C15.4651163,13.7860465 15.6325581,13.7860465 15.772093,13.7860465 C16.8883721,13.7581395 18.0046512,13.7023256 19.0930233,13.6744186 C19.3162791,13.6744186 19.5674419,13.6744186 19.7906977,13.6465116 C20.3209302,13.6186047 20.8511628,13.6186047 21.3813953,13.5906977 C21.9953488,13.5627907 22.6093023,13.5627907 23.2511628,13.5348837 C23.4186047,13.5627907 23.5302326,13.6465116 23.7534884,13.7302326 Z M7.67906977,13.172093 C7.73488372,14.2325581 7.79069767,15.2651163 7.8744186,16.2697674 C7.90232558,16.855814 7.98604651,17.4139535 8.01395349,18 C8.06976744,18.8930233 8.09767442,19.7860465 8.15348837,20.6790698 C8.18139535,21.1813953 8.20930233,21.7116279 8.2372093,22.2139535 C8.29302326,22.855814 8.09767442,23.4139535 7.48372093,23.7209302 C7.34418605,23.7767442 7.17674419,23.7488372 7.00930233,23.7767442 C7.00930233,23.6372093 6.9255814,23.4697674 6.98139535,23.3581395 C7.17674419,22.9674419 7.17674419,22.5767442 7.14883721,22.1860465 C7.12093023,21.3488372 7.14883721,20.5116279 7.12093023,19.6744186 C7.06511628,18.6976744 7.06511628,17.6930233 6.84186047,16.744186 C6.64651163,15.9348837 6.61860465,15.1534884 6.5627907,14.344186 C6.47906977,13.5348837 6.75813953,13.227907 7.67906977,13.172093 Z M10.3023256,13.5348837 C10.3302326,13.6744186 10.4139535,13.8139535 10.4139535,13.9534884 C10.4697674,14.8465116 10.5255814,15.7395349 10.5534884,16.6325581 C10.5534884,16.855814 10.5255814,17.1069767 10.5813953,17.3302326 C10.7767442,18.1395349 10.7488372,18.9767442 10.7209302,19.8139535 C10.6930233,20.8744186 10.7209302,21.9627907 10.7488372,23.0232558 C10.7488372,23.3302326 10.6930233,23.5255814 10.3581395,23.5813953 C9.93953488,23.6372093 9.85581395,23.6093023 9.66046512,23.2186047 C9.38139535,22.6325581 9.3255814,22.0465116 9.40930233,21.4325581 C9.52093023,20.5116279 9.66046512,19.6186047 9.77209302,18.6976744 L9.77209302,18.5581395 C9.4372093,17.3023256 9.8,15.9906977 9.63255814,14.7348837 C9.60465116,14.455814 9.66046512,14.1767442 9.71627907,13.9255814 C9.82790698,13.6744186 9.99534884,13.5069767 10.3023256,13.5348837 Z M23.9209302,16.6604651 C23.4465116,17.0232558 22.9162791,17.2744186 22.3023256,17.2744186 C21.4372093,17.2744186 20.6,17.3023256 19.7348837,17.3302326 C19.5953488,17.3302326 19.427907,17.3302326 19.2883721,17.3860465 C17.9488372,17.8046512 16.5813953,17.7209302 15.2139535,17.6930233 C14.3767442,17.6651163 13.5116279,17.7767442 12.6465116,17.8046512 C12.4511628,17.3302326 12.5627907,17.0511628 13.0930233,16.9395349 C13.7627907,16.827907 14.4604651,16.827907 15.1302326,16.772093 C16.6093023,16.6604651 18.0604651,16.5209302 19.5395349,16.4372093 C20.2093023,16.3813953 20.9069767,16.4093023 21.6046512,16.3813953 C22.1906977,16.3534884 22.8046512,16.3534884 23.3906977,16.3255814 C23.6418605,16.2976744 23.8651163,16.3255814 23.9209302,16.6604651 Z" id="Combined-Shape"></path>
</svg>