<svg width="24px" height="24px" viewBox="0 0 24 24" version="1.1" xmlns="http://www.w3.org/2000/svg" xmlns:xlink="http://www.w3.org/1999/xlink">
            <path d="M9.94378653,2.21334071 C10.4771216,1.76000587 10.98379,1.30667102 11.6237921,0.773335911 C11.7571259,1.73333911 11.197124,2.29334098 10.8237895,2.96000987 C11.3571246,3.22667742 11.97046,2.96000987 12.5304618,3.20001067 C12.6637956,4.0800136 11.8904597,3.89334631 11.4104581,4.05334684 C11.5171251,4.18668062 11.5971254,4.26668089 11.6771256,4.34668116 C11.8637929,4.50668169 12.0237935,4.66668222 12.2104608,4.800016 C12.7707293,5.20001733 12.7437959,5.7600192 12.5837953,6.32002107 C12.4771283,6.66668889 12.3171278,6.7200224 12.0237935,6.50668836 C11.3304578,6.05335351 10.5837887,5.65335218 10.0237868,5.01335004 C9.94378653,4.93334978 9.83711951,4.85334951 9.73045249,4.77334924 C9.49045169,5.01335004 9.59711871,5.2800176 9.59711871,5.5200184 C9.59711871,6.00002 9.62378546,6.50668836 9.59711871,6.98668996 C9.59711871,7.14669049 9.51711844,7.30669102 9.41045142,7.41335804 C9.3037844,7.52002507 9.11711711,7.57335858 8.98378333,7.54669182 C8.87711631,7.52002507 8.79711604,7.36002453 8.77044929,7.22669076 C8.69044902,6.88002293 8.583782,6.50668836 8.55711524,6.16002053 C8.53044849,5.81335271 8.583782,5.49335164 8.61044875,5.01335004 C8.37044795,5.22668409 8.23711417,5.38668462 8.07711364,5.5200184 C7.81044609,5.73335244 7.57044529,5.92001973 7.27711097,6.10668702 C7.1437772,6.18668729 6.9037764,6.21335404 6.85044289,6.16002053 C6.74377586,6.05335351 6.6637756,5.78668596 6.74377586,5.68001893 C6.95710991,5.25335084 7.25044422,4.85334951 7.51711177,4.42668142 C7.59711204,4.29334764 7.75711257,4.21334738 7.91711311,4.05334684 C7.6237788,3.8400128 7.33044449,3.73334578 7.01044342,3.73334578 C6.63710884,3.73334578 6.29044102,3.70667902 5.91710644,3.65334551 C5.43710484,3.57334524 5.38377133,3.44001147 5.59710537,2.90667636 L7.67711231,2.90667636 C7.51711177,2.61334204 7.46377826,2.37334124 7.30377773,2.18667396 C7.01044342,1.81333938 7.01044342,1.46667156 7.27711097,1.06667022 C7.6237788,1.01333671 7.8637796,1.25333751 8.13044715,1.4400048 C8.39711471,1.62667209 8.66378226,1.81333938 8.95711657,2.00000667 C9.22378413,1.28000427 9.35711791,0.586668622 9.81045275,-2.26485497e-14 C10.1837873,0.746669156 9.81045275,1.46667156 9.89045302,2.1600072 C9.86378626,2.1600072 9.91711977,2.18667396 9.94378653,2.21334071 Z M17.1172504,12.7467092 C17.7305858,12.9600432 17.9172531,13.5733786 18.3172544,13.9733799 C18.8772563,13.6000453 18.797256,12.8533762 19.2772576,12.3733746 C19.7039257,13.0133767 19.2236575,13.6533788 19.4372582,14.293381 C19.7039257,14.2400475 19.9705933,14.1600472 20.2639276,14.1067137 C20.5569952,14.0533802 20.8236628,14.0267134 21.1172638,13.9733799 C21.197264,14.6400488 20.98393,14.9867166 19.9705933,15.7867193 C20.1305938,15.8933863 20.2903277,16.0000533 20.4505949,16.1067204 C20.6105954,16.2133874 20.770596,16.3467212 20.9039297,16.4533882 C20.7439292,17.0400568 20.3705946,17.0400568 19.9172598,16.906723 C19.8903264,17.2000573 20.0505936,17.3867246 20.1305938,17.6000587 C20.2372608,17.8400595 20.3439279,18.0533935 20.4236615,18.2933943 C20.5039284,18.5333951 20.4772616,18.8000627 20.3172611,19.0133967 C20.1305938,19.2800643 19.8903264,19.3600645 19.6236588,19.1733972 C19.4105914,19.0133967 19.2236575,18.8000627 19.0903237,18.5867286 C18.8772563,18.2400608 18.6903224,17.893393 18.5039217,17.5467252 C18.477255,17.4933916 18.4236548,17.4933916 18.3172544,17.4133914 C18.2372542,17.5733919 18.1039204,17.7067257 18.0505869,17.8667262 C17.8903197,18.3733946 17.7305858,18.8800629 17.5705853,19.3867313 C17.5439185,19.4667316 17.5172518,19.5733986 17.4903184,19.6533988 C17.4105848,19.8400661 17.277251,20.0000667 17.090317,19.9467332 C16.8772496,19.8933996 16.7439159,19.7333991 16.7972494,19.4933983 C16.8505829,19.2267308 16.8772496,18.9600632 16.9569832,18.6933956 C17.1439172,18.0800603 17.3569846,17.4667249 17.5439185,16.8800563 C17.5705853,16.800056 17.5705853,16.693389 17.597252,16.586722 C17.2505842,16.4267214 16.9569832,16.6400555 16.6372488,16.693389 C16.2903144,16.7467225 15.9172464,16.8533895 15.5705786,16.8533895 C15.1172438,16.8533895 14.98391,16.6133887 15.2236441,16.2133874 C15.4372448,15.813386 15.7305792,15.4667182 16.2372475,15.3600512 C16.397248,15.3333844 16.5305818,15.2800509 16.6903157,15.1200504 C16.5305818,15.0400501 16.3705813,14.9867166 16.2105808,14.9067164 C15.6236455,14.6667156 15.0105768,14.4267148 14.5569752,14.0000467 C14.4236415,13.8933796 14.3172411,13.7067124 14.2903077,13.5467118 C14.2639076,13.2800443 14.4505749,13.1467105 14.7172424,13.2533775 C15.0105768,13.3867113 15.3039111,13.5200451 15.5972454,13.6800456 C15.97058,13.8667129 16.3439145,14.0267134 16.8236495,14.0800469 C16.7972494,13.5467118 16.7972494,13.1200437 17.1172504,12.7467092 Z M9.17047729,18.9333164 C9.06381026,17.99998 9.49047835,17.3333111 9.9438132,16.5066417 C10.0504802,16.7469092 10.1304805,16.906643 10.1571472,17.0399768 C10.183814,17.6802456 10.2104808,18.3199811 10.2371475,18.9602499 L10.2371475,19.6269188 C10.8504829,19.0399835 11.3571512,18.5866486 11.8904864,18.0802469 C12.1038204,18.3999813 12.0238201,18.6399821 11.8638196,18.9066497 C11.6771523,19.2269174 11.490485,19.5733186 11.277151,19.9733199 C11.8371528,19.9999867 12.3171544,20.0269201 12.7704893,20.0533202 C12.797156,20.693589 12.797156,20.693589 12.0238201,21.1999907 C12.1304872,21.5469252 12.6104888,21.7333258 12.5038217,22.1866606 C12.4504882,22.3999947 12.3971547,22.6399955 12.370488,22.8533295 C11.5704853,22.9333298 11.0904837,22.3469278 10.4238148,22.0802603 C10.3704813,22.213594 10.3171478,22.3199944 10.3171478,22.4533282 C10.2638143,22.8269294 10.2371475,23.1733306 10.183814,23.5469318 C10.1304805,23.8399995 9.97047995,24 9.73047915,24 C9.49047835,24 9.35714457,23.8666662 9.33047782,23.5199984 C9.27714431,23.093597 9.2238108,22.6666622 9.14381053,22.2399941 C8.79714271,22.1866606 8.66380893,22.4269281 8.5038084,22.586662 C8.39714137,22.7199957 8.31714111,22.8802629 8.18380733,22.9602632 C8.07714031,23.0399968 7.89047302,23.0666636 7.783806,23.0135967 C7.62380546,22.9602632 7.57047195,22.7733292 7.65047222,22.586662 C7.783806,22.3199944 7.94380653,22.0802603 8.07714031,21.8135927 C8.13047382,21.7333258 8.15714057,21.6533255 8.21047409,21.5733252 C8.13047382,21.5199917 8.10380706,21.4666582 8.05047355,21.4935916 C7.41047142,21.599992 6.87713631,21.3066577 6.42380146,20.9066564 C6.31713444,20.8269228 6.23713417,20.6666556 6.23713417,20.5602552 C6.26380093,20.4533215 6.39713471,20.2935876 6.50380173,20.2666542 C6.90380306,20.1602539 7.33047115,20.1066537 7.783806,20.0269201 C7.46380493,19.3602512 6.95713657,18.7199824 7.35713791,17.8935796 C7.97047329,18.0533135 8.42380813,18.6399821 9.17047729,18.9333164 Z M20.3438212,3.54667849 C20.9304898,3.30667769 21.4374248,3.06667689 21.9438265,2.85334284 C22.2104941,3.28001093 21.9438265,4.13334711 21.2771576,4.82668276 C21.5971587,4.88001627 21.890493,4.96001653 22.1838273,4.98668329 C22.4238281,4.98668329 22.6104954,5.0400168 22.6374288,5.33335111 C22.6374288,5.60001867 22.5304952,5.73335244 22.2638276,5.7600192 C22.1838273,5.7600192 22.1040937,5.81335271 22.0238268,5.86668622 C22.1040937,6.18668729 22.1838273,6.45335484 22.2374275,6.74668916 C22.2904944,6.98668996 22.2374275,7.28002427 22.0238268,7.36002453 C21.8374262,7.41335804 21.5438252,7.36002453 21.3571579,7.25335751 C21.0374235,7.06669022 20.770756,6.82668942 20.477155,6.58668862 C20.4238215,6.53335511 20.3707546,6.50668836 20.2904877,6.45335484 C20.0504869,6.85335618 20.1304872,7.28002427 20.0771536,7.70669236 C20.0238201,8.08002693 20.0238201,8.48002827 19.9707533,8.85336284 C19.9438199,8.98669662 19.9171531,9.14669716 19.8104861,9.25336418 C19.7304858,9.30669769 19.570752,9.38669796 19.4638183,9.38669796 C19.383818,9.38669796 19.2238175,9.22669742 19.2238175,9.14669716 C19.1707506,8.82669609 19.1171504,8.50669502 19.1438172,8.18669396 C19.1707506,7.70669236 19.3040844,7.22669076 19.3571512,6.7200224 C19.383818,6.56002187 19.3304845,6.37335458 19.3040844,6.10668702 C19.0638169,6.21335404 18.8771496,6.29335431 18.7171491,6.37335458 C18.397148,6.58668862 18.1040804,6.80002267 17.7838127,7.04002347 C17.5171451,7.22669076 17.3040777,7.14669049 17.2504776,6.80002267 C17.197144,6.45335484 17.3304778,6.16002053 17.5438119,5.89335298 C17.6504789,5.73335244 17.7838127,5.60001867 17.9707466,5.36001787 C17.6771456,5.2800176 17.4374115,5.20001733 17.197144,5.17335058 C16.98381,5.12001707 16.7971427,5.06668356 16.8238095,4.800016 C16.8504762,4.5600152 17.0104768,4.40001467 17.2771443,4.42668142 C17.5438119,4.45334818 17.7838127,4.50668169 18.0238135,4.53334844 L18.3171478,4.53334844 C18.3171478,4.26668089 18.1040804,4.18668062 17.9707466,4.05334684 C17.4638116,3.54667849 17.3571446,2.8800096 17.7571459,2.21334071 C18.370748,2.37334124 18.7707493,2.93334311 19.3304845,3.25334418 C19.7304858,2.85334284 19.570752,2.1600072 20.1304872,1.84000613 C20.4238215,2.34667449 20.2904877,2.90667636 20.3438212,3.54667849 Z M4.95718324,13.1467105 C4.95718324,13.2533775 4.93051649,13.3600445 4.95718324,13.4667116 C5.14385053,13.9733799 5.01051675,14.4800483 4.95718324,14.9867166 C4.95718324,15.0667169 4.93051649,15.1733839 4.90384973,15.2533842 C4.85051622,15.4667182 4.71718244,15.6267188 4.5038484,15.6267188 C4.2638476,15.6267188 4.21051409,15.4400515 4.13051382,15.2267174 C3.99718004,14.7200491 3.86384626,14.2133807 3.91717977,13.6533788 C3.91717977,13.5467118 3.89051302,13.4400448 3.89051302,13.3333778 C3.25051089,13.306711 2.98384333,13.8667129 2.53050849,14.1067137 C2.26384093,13.9733799 2.21050742,13.7600459 2.29050769,13.5467118 C2.39717471,13.2800443 2.53050849,13.0400435 2.66384226,12.7733759 C2.77050929,12.5867086 2.90384306,12.3733746 3.0638436,12.106707 C2.77050929,12.0800403 2.583842,12.0533735 2.39717471,12.0267068 C2.02384013,12.00004 1.78383933,11.8133727 1.78383933,11.5467052 C1.78383933,11.2800376 2.02384013,11.0667036 2.37050795,11.01337 C2.53050849,10.9867033 2.69050902,10.9867033 2.85050955,10.9600365 C2.87717631,10.9600365 2.93050982,10.9333698 2.98384333,10.906703 C3.19717737,10.3733679 2.55717524,9.89336631 2.93050982,9.30669769 C3.43717817,9.44003147 3.86384626,9.73336578 4.34384786,10.0800336 C4.47718164,9.8400328 4.61051542,9.62669876 4.71718244,9.41336471 C4.85051622,9.20003067 4.95718324,8.98669662 5.14385053,8.80002933 C5.49051835,9.46669822 5.09051702,10.1333671 5.19718404,10.8267028 C5.75718591,10.6133687 6.10385373,10.1067004 6.63718884,9.94669982 C6.93052315,10.3733679 6.53052182,10.6400355 6.45052155,11.01337 C6.63718884,11.0933703 6.82385613,11.1733706 7.03719017,11.2533708 C7.17052395,11.9200397 6.55718857,11.9733732 6.183854,12.213374 C6.31718777,12.6133754 6.63718884,12.8533762 6.87718964,13.1467105 C7.09052369,13.413378 7.35719124,13.6533788 7.54385853,13.9467132 C7.81052609,14.3200477 7.67719231,14.5867153 7.19719071,14.6667156 C6.53052182,14.7733826 6.07718697,14.4533815 5.67718564,14.0000467 C5.43718484,13.7600459 5.25051755,13.4667116 5.06385026,13.1733772 C5.03718351,13.1200437 4.98385,13.1200437 4.95718324,13.1467105 Z M13.3305178,11.1467038 C13.5171851,11.3600379 13.6505189,11.5200384 13.8105194,11.6533722 C14.1038537,11.9467065 14.1038537,11.9733732 13.8638529,12.4000413 C13.6238521,12.2933743 13.3571846,12.213374 13.1171838,12.106707 C13.0638503,12.0800403 13.0105168,12.106707 12.9305165,12.106707 C12.770516,12.6667089 12.9038497,13.3333778 12.3971814,13.8400461 C11.99718,13.3333778 12.0771803,12.6933756 11.5971787,12.2400408 C11.2771776,12.5600419 10.9838433,12.8800429 10.690509,13.200044 C10.370508,13.0400435 10.3971747,12.8000427 10.5038417,12.5867086 C10.6638423,12.3200411 10.8505096,12.0800403 11.0105101,11.8133727 C11.0638436,11.7067057 11.1171771,11.6000387 11.1971774,11.4400381 C10.7171758,11.4133714 10.3171744,11.3867046 9.89050635,11.3600379 C9.78383933,11.3600379 9.6238388,11.3067044 9.57050529,11.2267041 C9.51717177,11.1467038 9.57050529,10.9600365 9.65050555,10.8800363 C9.75717257,10.7467025 9.94383986,10.6667022 10.0771736,10.5600352 C10.2105074,10.4800349 10.3438412,10.4533682 10.5571752,10.3467012 C10.1838407,10.0000333 9.8638396,9.68003227 9.54383853,9.3600312 C9.57050529,9.28003093 9.57050529,9.20003067 9.59717204,9.1200304 C9.73050582,8.69336231 9.81050609,8.69336231 10.1571739,8.93336311 C10.5571752,9.22669742 11.1438439,9.52003173 11.5971787,9.62669876 C11.6238455,9.22669742 11.677179,8.80002933 11.7038457,8.37336124 C12.1305138,8.50669502 12.3438479,8.72002907 12.3705146,9.1200304 C12.3971814,9.3600312 12.4505149,9.62669876 12.4771816,9.89336631 C12.98385,9.70669902 13.1438505,9.1200304 13.7571859,9.04003013 C13.6238521,9.44003147 13.5171851,9.76003253 13.4371848,10.1067004 C13.8371862,10.3467012 13.8905197,10.3467012 14.4238548,10.3200344 C14.4771883,10.7467025 14.4771883,10.7467025 13.3305178,11.1467038 Z M20.5839287,20.4533748 C20.770596,20.5333751 21.0105968,20.613642 21.2505976,20.7200424 C21.3569979,20.4803083 21.4639316,20.2667076 21.5972654,20.00004 C21.7039324,20.1600405 21.7569992,20.2400408 21.8372662,20.3469745 C21.890333,20.4267081 21.9439332,20.5333751 22.0236668,20.6400421 C22.2106008,20.4533748 22.397268,20.3200411 22.5839353,20.1333738 C22.8506029,20.5067084 22.6106021,20.8267094 22.5839353,21.200044 C22.8236695,21.2533775 23.0639369,21.306711 23.3570046,21.3600445 C23.3039377,21.7867126 23.2506042,22.186714 23.170604,22.6136487 C22.9306032,22.506715 22.7439359,22.4533815 22.5306018,22.3469812 C22.3706013,22.8267161 22.6106021,23.4400515 22.0506002,23.7333858 C21.8105994,23.386718 21.5972654,23.0933836 21.3839313,22.7200491 C21.2236641,22.8803163 21.1172638,23.01365 20.98393,23.1200504 C20.7972627,23.2533842 20.6105954,23.386718 20.3972614,23.2267174 C20.1569939,23.0667169 20.2372608,22.8533828 20.3439279,22.6400488 C20.3705946,22.5867153 20.3705946,22.506715 20.4236615,22.3469812 L19.9172598,22.3469812 C19.570592,22.3200477 19.4639249,22.1067137 19.677259,21.8400461 C19.783926,21.7067124 19.9439265,21.6267121 20.1039271,21.5469785 C20.2639276,21.4933783 20.4505949,21.4667116 20.6639289,21.4400448 C20.4772616,21.1200437 19.9705933,20.8000427 20.5839287,20.4533748 Z M23.1706573,10.4533415 C23.2237241,10.506675 23.2506576,10.5600085 23.2770576,10.5866753 C23.6506589,11.0933436 23.6237255,11.2000107 23.0373235,11.4133447 C22.98399,11.4400115 22.9039897,11.4666782 22.8237228,11.5200117 C22.9306565,11.6533455 23.0103901,11.7866793 23.0903904,11.8933463 C23.3570579,12.2400141 23.3570579,12.2400141 22.98399,12.6133487 C22.770656,12.5066817 22.5839887,12.3733479 22.3173211,12.2133474 C22.2903877,12.4800149 22.2639876,12.6666822 22.2373208,12.8800163 C21.9437199,12.7733492 21.9437199,12.7733492 21.570652,12.0533468 C21.3570512,12.2666809 21.1706506,12.4800149 20.9839833,12.693349 C20.9039831,12.7733492 20.8237161,12.906683 20.7173158,12.9600165 C20.6373155,13.01335 20.4770483,13.01335 20.4237148,12.9600165 C20.370648,12.906683 20.3173144,12.7733492 20.3437145,12.693349 C20.3973147,12.5333484 20.4770483,12.4000147 20.583982,12.2666809 C20.7437159,12.0266801 20.9306498,11.813346 21.0639836,11.600012 C20.9306498,11.2800109 20.7173158,11.2533442 20.5039817,11.3066777 C20.2373142,11.3600112 20.077047,11.2800109 19.9706466,11.0400101 C20.2103808,10.7200091 20.2103808,10.7200091 20.9570499,10.5866753 C20.8506496,10.293341 20.7437159,10.0000067 20.583982,9.60000533 C21.0903837,9.6800056 21.3039844,10.1066737 21.7039857,10.2666742 C21.7306525,10.0266734 21.7039857,9.84000613 21.7570526,9.65333884 C21.783986,9.52000507 21.8639863,9.30667102 21.9706533,9.25333751 C22.1839873,9.17333724 22.2903877,9.33333778 22.3706546,9.52000507 C22.3973214,9.57333858 22.4237215,9.65333884 22.477055,9.76000587 C22.690389,9.6800056 22.8770563,9.60000533 23.1173238,9.52000507 C23.4373248,9.78667262 23.2237241,10.1333404 23.1706573,10.4533415 Z M3.89051302,1.44003147 C3.99718004,1.52003173 4.10384706,1.600032 4.29051435,1.73336578 C4.10384706,1.94669982 3.94384653,2.13336711 3.70384573,2.40003467 C3.86384626,2.58670196 4.0238468,2.800036 4.21051409,3.01337004 C3.89051302,3.38670462 3.783846,3.36003787 3.17051062,2.93336978 C2.95717657,3.25337084 3.33051115,3.78670596 2.77050929,3.94670649 C2.39717471,3.78670596 2.39717471,3.33337111 2.1038404,3.06670356 C1.89050635,3.25337084 1.70383906,3.44003813 1.49050502,3.60003867 C1.35717124,3.70670569 1.19717071,3.84003947 1.06383693,3.65337218 C0.983836664,3.54670516 0.983836664,3.30670436 1.03717017,3.22670409 C1.22383746,2.93336978 1.46383826,2.69336898 1.70383906,2.37336791 C1.54383853,2.3200344 1.41050475,2.3200344 1.30383773,2.26670089 C1.19717071,2.21336738 1.11717044,2.13336711 1.03717017,2.05336684 C1.11717044,1.97336658 1.19717071,1.86669956 1.30383773,1.8400328 C1.49050502,1.78669929 1.67717231,1.76003253 1.94383986,1.73336578 C1.65050555,1.38669796 1.06383693,1.22669742 1.46383826,0.613362045 C1.73050582,0.746695822 1.97050662,0.8800296 2.26384093,1.04003013 C2.39717471,0.800029333 2.50384173,0.586695289 2.63717551,0.373361245 C3.09051035,0.586695289 2.74384253,1.01336338 3.03717684,1.30669769 C3.3038444,1.1200304 3.59717871,0.933363111 3.89051302,0.720029067 C4.15718057,1.01336338 3.86384626,1.20003067 3.89051302,1.44003147 Z M4.31720778,21.9200464 C4.45054155,22.0803136 4.58387533,22.293381 4.71720911,22.4803149 C4.69054235,22.506715 4.69054235,22.5333818 4.6638756,22.5867153 C4.4238748,22.5333818 4.21054075,22.4803149 3.91720644,22.4267148 C3.91720644,22.6400488 3.9438732,22.8000493 3.9438732,22.9867166 C3.91720644,23.3333844 3.75720591,23.4136514 3.43720484,23.2803176 C3.11720378,23.1469838 2.87720298,22.9600499 2.87720298,22.4267148 C2.61053542,22.7733826 2.42386813,22.9867166 2.29053435,23.2000507 C1.783866,22.9867166 1.75719924,22.8803163 1.99720004,22.5867153 C2.15720058,22.400048 2.31720111,22.2136474 2.47720164,22.0267134 C2.29053435,21.813646 1.94386653,21.8933796 1.94386653,21.5469785 C1.94386653,21.2267108 2.21053409,21.200044 2.42386813,21.093377 C2.23720084,20.7733759 2.05053355,20.4803083 2.21053409,20.106707 C2.55720191,20.0803069 2.63720218,20.4803083 2.95720324,20.5600419 C3.09053702,20.3469745 3.2238708,20.106707 3.43720484,19.7333724 C3.51720511,19.9733732 3.57053862,20.106707 3.59720538,20.2400408 C3.62387213,20.3469745 3.67720564,20.4803083 3.7038724,20.6400421 C3.99720671,20.4803083 4.26387426,20.3469745 4.58387533,20.1867073 C4.61054209,20.3200411 4.6638756,20.4000413 4.63720884,20.4803083 C4.53054182,20.7200424 4.4238748,20.9333764 4.61054209,21.2267108 C4.6638756,21.3600445 4.45054155,21.6533788 4.31720778,21.9200464 Z" id="Combined-Shape"></path>
</svg>