<svg width="24px" height="24px" viewBox="0 0 24 24" version="1.1" xmlns="http://www.w3.org/2000/svg" xmlns:xlink="http://www.w3.org/1999/xlink">
    <path d="M17.615625,13.240625 C17.859375,12.996875 18,12.6575 18,12.3125 C18,11.9675 17.859375,11.628125 17.615625,11.384375 C17.371875,11.140625 17.0325,11 16.6875,11 C16.3425,11 16.003125,11.140625 15.759375,11.384375 C15.515625,11.628125 15.375,11.9675 15.375,12.3125 C15.375,12.6575 15.515625,12.996875 15.759375,13.240625 C16.003125,13.484375 16.3425,13.625 16.6875,13.625 C17.0325,13.625 17.371875,13.484375 17.615625,13.240625 M12.928125,13.240625 C13.171875,12.995 13.3125,12.6575 13.3125,12.3125 C13.3125,11.9675 13.171875,11.628125 12.928125,11.384375 C12.684375,11.140625 12.345,11 12,11 C11.655,11 11.315625,11.140625 11.071875,11.384375 C10.828125,11.628125 10.6875,11.9675 10.6875,12.3125 C10.6875,12.6575 10.828125,12.996875 11.071875,13.240625 C11.315625,13.484375 11.655,13.625 12,13.625 C12.345,13.625 12.684375,13.484375 12.928125,13.240625 M7.3125,13.625 C6.9675,13.625 6.628125,13.484375 6.384375,13.240625 C6.140625,12.996875 6,12.6575 6,12.3125 C6,11.9675 6.140625,11.628125 6.384375,11.384375 C6.628125,11.140625 6.9675,11 7.3125,11 C7.6575,11 7.996875,11.140625 8.240625,11.384375 C8.484375,11.628125 8.625,11.9675 8.625,12.3125 C8.625,12.6575 8.484375,12.996875 8.240625,13.240625 C7.996875,13.484375 7.6575,13.625 7.3125,13.625" id="dots-3"></path>
</svg>