<?xml version="1.0" encoding="utf-8"?>
<!-- Generator: Adobe Illustrator 21.0.2, SVG Export Plug-In . SVG Version: 6.00 Build 0)  -->
<svg version="1.1" id="Layer_1" xmlns="http://www.w3.org/2000/svg" xmlns:xlink="http://www.w3.org/1999/xlink" x="0px" y="0px"
	 viewBox="0 0 24 24" style="enable-background:new 0 0 24 24;" xml:space="preserve">
<path id="Fill-1" d="M22.592,14.047C22.263,8.826,19.219,6.371,18.1,5.64l-0.523,1.751c-0.054,0.179-0.219,0.296-0.397,0.296
	c-0.039,0-0.079-0.006-0.118-0.017c-0.219-0.066-0.344-0.296-0.278-0.515l1.332-4.458C17.5,2.223,15.397,0.828,11.95,0.828
	c-0.006,0-0.011-0.003-0.017-0.003s-0.011,0.003-0.016,0.003c-3.446,0-5.55,1.394-6.165,1.868l1.331,4.458
	c0.065,0.219-0.059,0.449-0.278,0.515c-0.04,0.012-0.079,0.017-0.118,0.017c-0.178,0-0.343-0.116-0.397-0.296L5.766,5.635
	c-1.125,0.72-4.158,3.135-4.489,8.411c-0.314,4.987,3.237,6.269,4.755,6.588c-1.684-2.63-1.916-5.946-1.946-6.702
	c-0.155,0.003-0.308,0.005-0.459,0.005c-0.229,0-0.414-0.185-0.414-0.414c0-0.229,0.185-0.414,0.414-0.414
	c2.575,0,5.511-0.437,7.823-3.609c-0.211-0.472-0.325-0.954-0.325-1.438c0-0.229,0.185-0.414,0.414-0.414
	c0.229,0,0.414,0.185,0.414,0.414c0,1.156,0.821,2.108,1.51,2.703c1.819,1.573,4.933,2.611,6.945,2.321
	c0.227-0.036,0.436,0.123,0.469,0.349c0.033,0.226-0.123,0.437-0.349,0.47c-0.237,0.035-0.489,0.051-0.75,0.053
	c-0.05,0.79-0.359,4.094-2.098,6.707C19.091,20.404,22.917,19.215,22.592,14.047 M18.95,13.92c-2.047-0.205-4.479-1.186-6.029-2.526
	c-0.412-0.356-0.752-0.73-1.025-1.114c-2.108,2.703-4.7,3.446-6.985,3.613c0.019,0.51,0.139,2.516,0.913,4.525
	c1.16,3.013,3.182,4.617,6.011,4.768C18.151,22.849,18.876,15.124,18.95,13.92 M17.231,21.563c-0.01,0.001-0.02,0.001-0.03,0.001
	c-0.062,0-0.119-0.017-0.172-0.041c-1.165,1.352-2.82,2.372-5.173,2.491l-0.021,0.001l-0.021-0.001
	c-2.334-0.118-3.962-1.123-5.1-2.459c-0.017,0.002-0.031,0.009-0.048,0.009c-0.01,0-0.019,0-0.029-0.001
	c-0.066-0.004-6.629-0.547-6.187-7.568c0.374-5.956,3.997-8.541,5.071-9.181L4.895,2.719c-0.001-0.005,0-0.01-0.001-0.015
	C4.832,2.55,4.865,2.369,4.993,2.249C5.091,2.157,7.444,0,11.918,0c0.005,0,0.01,0.003,0.016,0.003S11.944,0,11.95,0
	c4.474,0,6.826,2.158,6.924,2.249c0.129,0.12,0.161,0.302,0.099,0.455c-0.001,0.005,0,0.009-0.001,0.014l-0.626,2.095
	c1.074,0.64,4.696,3.225,5.072,9.181C23.86,21.016,17.297,21.559,17.231,21.563 M13.912,18.944c-1.36,0.959-2.969,0.526-3.719-0.001
	c-0.187-0.132-0.446-0.086-0.577,0.101S9.53,19.49,9.717,19.621c0.613,0.43,1.465,0.726,2.373,0.726c0.764,0,1.568-0.21,2.299-0.727
	c0.187-0.132,0.231-0.39,0.099-0.577C14.357,18.857,14.1,18.812,13.912,18.944 M13.891,4.187c0,0.229-0.185,0.414-0.414,0.414
	h-1.129V5.73c0,0.229-0.185,0.414-0.414,0.414S11.52,5.958,11.52,5.729V4.601h-1.129c-0.229,0-0.414-0.185-0.414-0.414
	s0.185-0.414,0.414-0.414h1.129v-1.13c0-0.229,0.185-0.414,0.414-0.414s0.414,0.185,0.414,0.414v1.13h1.129
	C13.706,3.773,13.891,3.958,13.891,4.187"/>
</svg>
