<?xml version="1.0" encoding="utf-8"?>
<!-- Generator: Adobe Illustrator 21.0.2, SVG Export Plug-In . SVG Version: 6.00 Build 0)  -->
<svg version="1.1" id="Layer_1" xmlns="http://www.w3.org/2000/svg" xmlns:xlink="http://www.w3.org/1999/xlink" x="0px" y="0px"
	 viewBox="0 0 24 24" style="enable-background:new 0 0 24 24;" xml:space="preserve">
<path d="M13.872,3.938c0.069-0.111,0.125-0.226,0.159-0.346l0.77-2.684c0.074-0.253,0.053-0.483-0.075-0.667
	C14.604,0.086,14.389,0,14.123,0H9.88C9.609,0,9.393,0.088,9.265,0.256C9.147,0.419,9.124,0.65,9.199,0.905l0.773,2.688
	c0.034,0.12,0.091,0.235,0.159,0.346C5.44,4.818,1.879,8.94,1.879,13.881C1.879,19.461,6.42,24,12.002,24
	c5.58,0,10.12-4.539,10.12-10.119C22.121,8.94,18.562,4.818,13.872,3.938z M10.038,0.828h3.926l-0.728,2.535
	c-0.046,0.16-0.195,0.325-0.38,0.438c-0.282-0.024-0.566-0.039-0.854-0.039s-0.572,0.015-0.854,0.039
	c-0.185-0.113-0.335-0.278-0.381-0.437L10.038,0.828z M12.002,23.172c-5.126,0-9.295-4.168-9.295-9.291
	c0-4.78,3.63-8.727,8.279-9.235l0.045,0.019l0.965-0.012L11.995,4.59h0.007h0.004l0.003,0.063l0.965,0.012l0.045-0.019
	c4.647,0.508,8.275,4.455,8.275,9.235C21.294,19.004,17.125,23.172,12.002,23.172z"/>
</svg>
