<?xml version="1.0" encoding="utf-8"?>
<!-- Generator: Adobe Illustrator 21.0.2, SVG Export Plug-In . SVG Version: 6.00 Build 0)  -->
<svg version="1.1" id="Layer_1" xmlns="http://www.w3.org/2000/svg" xmlns:xlink="http://www.w3.org/1999/xlink" x="0px" y="0px"
	 viewBox="0 0 24 24" style="enable-background:new 0 0 24 24;" xml:space="preserve">
<path d="M12.697,2.226l0.086-1.831c0.011-0.229,0.197-0.408,0.432-0.394c0.228,0.011,0.405,0.204,0.394,0.433l-0.086,1.831
	c-0.011,0.222-0.194,0.394-0.413,0.394c-0.007,0-0.014,0-0.02,0C12.862,2.648,12.686,2.454,12.697,2.226z M18.223,5.196
	c0.098,0,0.197-0.035,0.276-0.105l1.368-1.22c0.17-0.152,0.185-0.414,0.033-0.584c-0.152-0.171-0.414-0.185-0.584-0.033l-1.368,1.22
	c-0.17,0.152-0.185,0.414-0.033,0.584C17.996,5.15,18.11,5.196,18.223,5.196z M19.58,10.182c-0.015,0.228,0.157,0.425,0.386,0.441
	l1.826,0.122c0.009,0,0.019,0.001,0.028,0.001c0.216,0,0.398-0.168,0.413-0.386c0.015-0.228-0.157-0.425-0.385-0.441l-1.826-0.122
	C19.802,9.788,19.596,9.954,19.58,10.182z M17.206,14.857c-0.173,0.149-0.193,0.41-0.044,0.583l1.232,1.436
	c0.082,0.095,0.198,0.144,0.314,0.144c0.095,0,0.192-0.033,0.269-0.1c0.173-0.149,0.193-0.41,0.045-0.583l-1.232-1.436
	C17.642,14.728,17.38,14.709,17.206,14.857z M11.681,16.916l-0.161,1.858c-0.02,0.228,0.149,0.428,0.376,0.448
	c0.012,0.001,0.024,0.002,0.036,0.002c0.213,0,0.393-0.163,0.412-0.378l0.161-1.859c0.019-0.228-0.149-0.428-0.377-0.448
	C11.898,16.519,11.701,16.688,11.681,16.916z M6.773,14.233l-1.437,1.184C5.16,15.562,5.134,15.823,5.28,16
	c0.082,0.099,0.2,0.151,0.319,0.151c0.093,0,0.186-0.031,0.263-0.095l1.437-1.184c0.176-0.145,0.202-0.406,0.056-0.582
	C7.211,14.113,6.949,14.088,6.773,14.233z M3.2,9.374l2.043,0.217c0.015,0.002,0.029,0.002,0.044,0.002
	c0.209,0,0.389-0.158,0.411-0.37c0.024-0.227-0.14-0.431-0.367-0.455L3.287,8.551c-0.233-0.026-0.431,0.14-0.455,0.367
	C2.808,9.146,2.973,9.35,3.2,9.374z M7.398,4.372C7.479,4.475,7.6,4.528,7.722,4.528c0.09,0,0.181-0.029,0.257-0.089
	c0.179-0.142,0.209-0.402,0.067-0.581L6.852,2.349C6.71,2.17,6.45,2.14,6.27,2.282C6.092,2.423,6.061,2.684,6.203,2.863L7.398,4.372
	z M7.251,7.004c0.694-1.441,1.907-2.525,3.416-3.053c1.51-0.529,3.134-0.438,4.576,0.257c1.441,0.694,2.525,1.907,3.054,3.416
	c0.528,1.509,0.437,3.134-0.257,4.575s-1.907,2.526-3.416,3.054c-0.648,0.227-1.317,0.34-1.983,0.34
	c-0.887,0-1.77-0.199-2.592-0.595c-1.441-0.694-2.525-1.908-3.054-3.417C6.466,10.071,6.557,8.446,7.251,7.004z M7.776,11.306
	c0.456,1.301,1.389,2.347,2.631,2.945s2.642,0.676,3.943,0.221c1.3-0.455,2.346-1.39,2.944-2.632s0.676-2.642,0.221-3.942l0,0
	c-0.455-1.301-1.389-2.346-2.631-2.945c-0.709-0.341-1.47-0.514-2.234-0.514c-0.574,0-1.151,0.097-1.709,0.293
	c-1.3,0.455-2.346,1.39-2.944,2.632C7.399,8.605,7.32,10.005,7.776,11.306z M22.671,20.89c-0.215-0.082-0.453,0.027-0.533,0.241
	c-0.459,1.221-1.645,2.041-2.95,2.041c-1.307,0-2.493-0.822-2.952-2.045c-0.002-0.005-0.007-0.009-0.009-0.015
	c-0.005-0.011-0.013-0.019-0.019-0.03c-0.074-0.14-0.217-0.223-0.372-0.218c-0.007,0-0.013,0.002-0.019,0.003
	c-0.038,0.003-0.076,0.004-0.114,0.018c-0.009,0.003-0.015,0.011-0.024,0.014c-0.003,0.002-0.006,0.005-0.01,0.007
	c-0.045,0.022-0.086,0.049-0.119,0.084c-0.004,0.005-0.007,0.01-0.01,0.015c-0.031,0.036-0.057,0.074-0.074,0.118
	c-0.001,0.003-0.004,0.005-0.005,0.009c-0.459,1.221-1.645,2.041-2.949,2.041c-1.307,0-2.493-0.822-2.952-2.045
	c-0.069-0.185-0.256-0.282-0.443-0.257c-0.177-0.012-0.349,0.086-0.415,0.261c-0.459,1.221-1.644,2.041-2.95,2.041
	c-1.307,0-2.493-0.822-2.952-2.045c-0.08-0.214-0.318-0.322-0.533-0.242c-0.214,0.081-0.322,0.319-0.242,0.533
	C2.605,22.962,4.103,24,5.753,24c1.387,0,2.664-0.735,3.38-1.884C9.849,23.266,11.126,24,12.512,24c1.358,0,2.614-0.706,3.338-1.818
	C16.574,23.294,17.828,24,19.188,24c1.648,0,3.145-1.036,3.725-2.577C22.993,21.209,22.885,20.971,22.671,20.89z"/>
</svg>
