<?xml version="1.0" encoding="utf-8"?>
<!-- Generator: Adobe Illustrator 21.0.2, SVG Export Plug-In . SVG Version: 6.00 Build 0)  -->
<svg version="1.1" id="Layer_1" xmlns="http://www.w3.org/2000/svg" xmlns:xlink="http://www.w3.org/1999/xlink" x="0px" y="0px"
	 viewBox="0 0 24 24" style="enable-background:new 0 0 24 24;" xml:space="preserve">
<path d="M23.981,15.245c-0.07-0.218-0.303-0.338-0.52-0.269l-11.043,3.525c-0.465-0.917-1.414-1.548-2.51-1.548
	c-0.192,0-0.38,0.019-0.562,0.056L5.113,3.98C5.078,3.873,5.001,3.785,4.901,3.736L0.596,1.631c-0.206-0.1-0.453-0.015-0.554,0.19
	s-0.015,0.454,0.19,0.554L4.38,4.402l4.187,12.891c-0.878,0.477-1.476,1.408-1.476,2.476c0,1.553,1.263,2.816,2.816,2.816
	s2.815-1.263,2.815-2.816c0-0.164-0.017-0.325-0.044-0.482l11.034-3.522C23.93,15.695,24.05,15.462,23.981,15.245z M9.907,21.757
	c-1.096,0-1.988-0.892-1.988-1.988s0.892-1.988,1.988-1.988s1.988,0.892,1.988,1.988C11.895,20.865,11.003,21.757,9.907,21.757z
	 M11.433,16.192c0.058,0.175,0.219,0.285,0.393,0.285c0.043,0,0.086-0.006,0.129-0.021l10.714-3.518
	c0.218-0.071,0.336-0.305,0.264-0.522L19.416,1.701c-0.034-0.104-0.109-0.191-0.206-0.24c-0.098-0.05-0.211-0.058-0.316-0.024
	L8.179,4.955C7.961,5.026,7.843,5.26,7.915,5.477L11.433,16.192z M13.278,4.151l1.013,3.127c0.057,0.175,0.219,0.286,0.394,0.286
	c0.042,0,0.085-0.007,0.128-0.02c0.217-0.07,0.336-0.304,0.266-0.521l-1.015-3.129l4.695-1.542l3.259,9.929L12.09,15.54L8.83,5.612
	L13.278,4.151z"/>
</svg>
