<svg viewBox="0 0 24 24" version="1.1" xmlns="http://www.w3.org/2000/svg" xmlns:xlink="http://www.w3.org/1999/xlink">
            <path d="M15.3397831,12.6010344 C15.4959864,12.7621191 15.4919186,13.0196107 15.3304271,13.1762208 C14.481478,13.9987293 13.2021559,14.4701869 11.8219525,14.4701869 C10.4026983,14.4701869 9.10222373,13.9767632 8.25327458,13.1164242 C8.09544407,12.9565598 8.09707119,12.6986615 8.25734237,12.5412378 C8.41639322,12.3834073 8.67469831,12.3850344 8.83252881,12.5448988 C9.51917288,13.2408988 10.6365966,13.6566276 11.8219525,13.6566276 C12.9755797,13.6566276 14.0759186,13.2583903 14.7645966,12.5916785 C14.9256814,12.4358818 15.1831729,12.4391361 15.3397831,12.6010344 M21.4117241,12.6095764 L13.1673103,21.5859901 C12.8582069,21.9228177 12.4431724,22.108197 11.9991724,22.108197 C11.5555862,22.108197 11.1405517,21.9228177 10.8310345,21.5859901 L2.5742069,12.596335 C1.44786207,11.4385419 0.827586207,9.90874877 0.827586207,8.29040394 C0.827586207,4.88447291 3.59710345,2.11330049 7.00137931,2.11330049 C8.8022069,2.11330049 10.5095172,2.89661084 11.6855172,4.26212808 C11.7641379,4.35357635 11.8787586,4.40612808 11.9991724,4.40612808 L11.9995862,4.40612808 C12.12,4.40612808 12.2342069,4.35357635 12.3128276,4.26171429 C13.4855172,2.89661084 15.1928276,2.11330049 16.9961379,2.11330049 C18.6426207,2.11330049 20.1931034,2.75674877 21.3612414,3.92447291 C22.5293793,5.09302463 23.1724138,6.64350739 23.1724138,8.29040394 C23.1724138,9.91081773 22.550069,11.4414384 21.4117241,12.6095764 M21.9463448,3.33936946 C20.6217931,2.01523153 18.8635862,1.28571429 16.9961379,1.28571429 C15.1063448,1.28571429 13.3104828,2.04419704 11.9987586,3.38116256 C10.6845517,2.04461084 8.88827586,1.28571429 7.00137931,1.28571429 C3.14068966,1.28571429 0,4.42805911 0,8.29040394 C0,10.1259901 0.703448276,11.8597833 1.97296552,13.1648867 L10.221931,22.146266 C10.689931,22.6552315 11.3213793,22.9357833 11.9991724,22.9357833 C12.6773793,22.9357833 13.3088276,22.6552315 13.7764138,22.146266 L22.0125517,13.1785419 C23.294069,11.8639212 24,10.1280591 24,8.29040394 C24,6.42254187 23.2708966,4.66392118 21.9463448,3.33936946" id="Fill-1"></path>
</svg>