<?xml version="1.0" encoding="utf-8"?>
<!-- Generator: Adobe Illustrator 21.0.2, SVG Export Plug-In . SVG Version: 6.00 Build 0)  -->
<svg version="1.1" id="Layer_1" xmlns="http://www.w3.org/2000/svg" xmlns:xlink="http://www.w3.org/1999/xlink" x="0px" y="0px"
	 viewBox="0 0 24 24" style="enable-background:new 0 0 24 24;" xml:space="preserve">
<path id="Fill-1" d="M15.34,12.601c0.156,0.161,0.152,0.419-0.009,0.575c-0.849,0.823-2.128,1.294-3.508,1.294
	c-1.419,0-2.72-0.493-3.569-1.354c-0.158-0.16-0.156-0.418,0.004-0.575c0.159-0.158,0.417-0.156,0.575,0.004
	c0.687,0.696,1.804,1.112,2.989,1.112c1.154,0,2.254-0.398,2.943-1.065C14.926,12.436,15.183,12.439,15.34,12.601 M22.65,6.091
	c-0.777,0.934-1.552,1.867-2.327,2.801c-0.167,0.203-0.255,0.233-0.502,0.052c-0.24-0.176-0.487-0.342-0.752-0.52L18.708,8.18
	c-0.124-0.085-0.286-0.094-0.419-0.024c-0.133,0.071-0.217,0.209-0.217,0.36v8.377c0,0.353-0.063,0.416-0.423,0.423
	c-2.098,0.04-3.628,1.342-3.995,3.398c-0.038,0.218-0.049,0.43-0.059,0.636l-0.009,0.164c-0.01,0.171-0.096,0.257-0.257,0.258
	c-1.023,0.003-2.046,0.003-3.068,0c-0.177,0-0.257-0.081-0.261-0.261c-0.024-1.166-0.35-2.094-0.998-2.838
	c-0.7-0.804-1.66-1.258-2.856-1.351c-0.061-0.005-0.123-0.006-0.185-0.006l-0.064-0.001c-0.305-0.007-0.384-0.088-0.384-0.395V8.516
	c0-0.151-0.083-0.289-0.217-0.36c-0.06-0.032-0.125-0.047-0.19-0.047c-0.081,0-0.161,0.024-0.229,0.071l-0.36,0.243
	C4.255,8.6,4.009,8.765,3.769,8.94C3.517,9.124,3.435,9.095,3.267,8.894c-0.781-0.938-1.561-1.877-2.34-2.817
	c-0.201-0.242-0.09-0.349-0.024-0.414C2.52,4.087,3.908,3.086,5.401,2.419C6.245,2.04,7.142,1.792,8.068,1.68
	c0.285-0.034,0.321-0.028,0.478,0.279c0.679,1.321,1.801,2.02,3.243,2.024h0.01c1.423,0,2.54-0.689,3.228-1.994
	c0.179-0.34,0.216-0.346,0.551-0.303c1.658,0.212,3.238,0.866,4.695,1.947c0.676,0.501,1.326,1.073,1.955,1.628l0.419,0.368
	C22.786,5.75,22.856,5.843,22.65,6.091 M23.182,5.016L22.766,4.65c-0.641-0.565-1.305-1.15-2.008-1.67
	c-1.57-1.165-3.278-1.872-5.076-2.101C15,0.791,14.638,0.983,14.308,1.609c-0.546,1.035-1.39,1.56-2.509,1.56h-0.008
	C10.657,3.167,9.808,2.634,9.27,1.587C9.009,1.081,8.704,0.785,7.971,0.872C6.963,0.994,5.987,1.264,5.069,1.676
	C3.484,2.384,2.024,3.434,0.336,5.08c-0.434,0.421-0.448,1.016-0.035,1.516c0.78,0.94,1.561,1.88,2.341,2.818
	c0.452,0.544,1.022,0.609,1.606,0.183C4.396,9.49,4.545,9.386,4.7,9.281v7.639c0.001,0.75,0.431,1.19,1.18,1.207l0.076,0.001
	c0.044,0,0.088,0,0.13,0.004c0.987,0.076,1.741,0.428,2.303,1.073c0.517,0.594,0.778,1.353,0.798,2.321
	c0.013,0.621,0.454,1.056,1.072,1.058c0.512,0.001,1.024,0.002,1.536,0.002s1.024-0.001,1.536-0.002
	c0.594-0.001,1.033-0.422,1.068-1.024l0.009-0.172c0.009-0.189,0.017-0.367,0.047-0.533c0.299-1.676,1.498-2.695,3.209-2.727
	c0.799-0.015,1.221-0.443,1.221-1.236v-7.61c0.157,0.107,0.308,0.211,0.456,0.319c0.582,0.426,1.153,0.358,1.608-0.189
	c0.775-0.934,1.55-1.868,2.326-2.8C23.731,6.062,23.696,5.466,23.182,5.016"/>
</svg>
