<?xml version="1.0" encoding="utf-8"?>
<!-- Generator: Adobe Illustrator 21.0.2, SVG Export Plug-In . SVG Version: 6.00 Build 0)  -->
<svg version="1.1" id="Layer_1" xmlns="http://www.w3.org/2000/svg" xmlns:xlink="http://www.w3.org/1999/xlink" x="0px" y="0px"
	 viewBox="0 0 24 24" style="enable-background:new 0 0 24 24;" xml:space="preserve">
<path d="M4.409,11.647l-1.85,2.044c-0.079,0.087-0.19,0.136-0.307,0.136H2.251c-0.117,0-0.229-0.05-0.307-0.137l-1.838-2.044
	c-0.153-0.17-0.139-0.432,0.031-0.584c0.17-0.153,0.431-0.14,0.585,0.031l1.096,1.219c-0.003-0.104-0.01-0.208-0.01-0.312
	c0-5.678,4.62-10.298,10.297-10.298c0.229,0,0.414,0.185,0.414,0.414S12.334,2.53,12.105,2.53c-5.222,0-9.47,4.248-9.47,9.47
	c0,0.12,0.007,0.24,0.012,0.361l1.149-1.269c0.153-0.17,0.415-0.183,0.584-0.029C4.549,11.216,4.563,11.478,4.409,11.647
	 M23.899,12.376l-1.79-2.072c-0.077-0.09-0.189-0.142-0.307-0.144c-0.111-0.005-0.232,0.047-0.311,0.134l-1.899,2.071
	c-0.154,0.169-0.143,0.431,0.026,0.585c0.169,0.154,0.43,0.142,0.585-0.026L21.4,11.62c0.005,0.126,0.011,0.253,0.011,0.38
	c0,5.222-4.248,9.47-9.47,9.47c-0.229,0-0.414,0.185-0.414,0.414c0,0.228,0.185,0.414,0.414,0.414
	c5.678,0,10.297-4.62,10.297-10.298c0-0.097-0.006-0.194-0.009-0.29l1.043,1.207c0.082,0.095,0.197,0.143,0.313,0.143
	c0.096,0,0.192-0.033,0.271-0.101C24.029,12.81,24.049,12.549,23.899,12.376 M16.864,3.989c0.286,0.03,0.542-0.178,0.571-0.464
	s-0.178-0.541-0.464-0.571c-0.286-0.029-0.541,0.178-0.57,0.464C16.371,3.705,16.578,3.96,16.864,3.989 M18.507,5.11
	c0.286,0.03,0.542-0.178,0.571-0.464c0.029-0.285-0.178-0.541-0.464-0.571c-0.286-0.03-0.542,0.179-0.571,0.464
	C18.014,4.825,18.222,5.081,18.507,5.11 M19.871,6.63c0.286,0.03,0.542-0.178,0.571-0.464c0.029-0.285-0.178-0.541-0.464-0.571
	c-0.286-0.029-0.542,0.178-0.571,0.464C19.378,6.346,19.585,6.601,19.871,6.63 M4.236,17.421c-0.287,0.028-0.496,0.282-0.469,0.568
	c0.027,0.286,0.282,0.496,0.568,0.468c0.286-0.027,0.496-0.281,0.468-0.567C4.776,17.604,4.521,17.394,4.236,17.421 M5.613,18.904
	c-0.286,0.028-0.495,0.282-0.468,0.567c0.027,0.286,0.281,0.496,0.567,0.469c0.285-0.027,0.495-0.281,0.468-0.568
	C6.153,19.087,5.899,18.877,5.613,18.904 M7.289,20.027c-0.287,0.027-0.496,0.281-0.469,0.566c0.027,0.287,0.281,0.496,0.568,0.468
	c0.286-0.027,0.496-0.281,0.468-0.567C7.828,20.209,7.574,20,7.289,20.027 M12,15.101c-0.26,0-0.502-0.107-0.682-0.3L9.2,12.495
	c-0.376-0.386-0.588-0.907-0.588-1.459c0-1.161,0.944-2.105,2.105-2.105c0.468,0,0.918,0.155,1.282,0.435
	c0.364-0.28,0.814-0.435,1.282-0.435c0.562,0,1.09,0.219,1.488,0.617s0.617,0.927,0.617,1.489c0,0.552-0.212,1.073-0.597,1.469
	L12.682,14.8C12.501,14.994,12.259,15.101,12,15.101 M12.075,14.237l2.114-2.302c0.242-0.249,0.371-0.565,0.371-0.9
	c0-0.341-0.132-0.662-0.374-0.903c-0.506-0.506-1.408-0.471-1.871,0.07c-0.078,0.091-0.193,0.144-0.314,0.144l0,0
	c-0.12,0-0.235-0.053-0.313-0.144c-0.243-0.283-0.597-0.444-0.97-0.444c-0.704,0-1.277,0.573-1.277,1.278
	c0,0.334,0.128,0.651,0.362,0.89l2.124,2.313C11.99,14.308,12.008,14.309,12.075,14.237"/>
</svg>
