<?xml version="1.0" encoding="utf-8"?>
<!-- Generator: Adobe Illustrator 21.0.2, SVG Export Plug-In . SVG Version: 6.00 Build 0)  -->
<svg version="1.1" id="Layer_1" xmlns="http://www.w3.org/2000/svg" xmlns:xlink="http://www.w3.org/1999/xlink" x="0px" y="0px"
	 viewBox="0 0 24 24" style="enable-background:new 0 0 24 24;" xml:space="preserve">
<path d="M23.892,2.881l-1.365-1.497c-0.079-0.086-0.189-0.135-0.306-0.135l0,0c-0.116,0-0.227,0.049-0.305,0.134l-1.447,1.58
	c-0.154,0.168-0.143,0.43,0.025,0.585c0.08,0.072,0.18,0.108,0.28,0.108c0.112,0,0.223-0.045,0.305-0.134l0.729-0.797v3.689H19.05
	h-0.316H10.8c-0.229,0-0.414,0.185-0.414,0.414v4.851H5.533c-0.229,0-0.414,0.185-0.414,0.414V16.8H0.414
	C0.185,16.801,0,16.986,0,17.215v5.123c0,0.229,0.185,0.414,0.414,0.414h7.933c0.229,0,0.414-0.185,0.414-0.414v-4.709h4.706
	c0.229,0,0.414-0.185,0.414-0.414v-4.693h1.265c0.025,0,0.046-0.01,0.07-0.014h3.517c0.228,0,0.414-0.185,0.414-0.414V7.243h3.074
	c0.229,0,0.414-0.185,0.414-0.414V2.731l0.645,0.707c0.154,0.169,0.417,0.181,0.585,0.027C24.034,3.312,24.046,3.05,23.892,2.881z
	 M0.828,21.924v-4.295h4.706c0.031,0,0.059-0.011,0.088-0.018c0.018,0.002,0.035,0.011,0.054,0.011h2.258v4.302H0.828z
	 M13.053,16.801H9.739c-0.012-0.001-0.022-0.007-0.034-0.007H5.947v-4.286H10.8c0.05,0,0.096-0.012,0.14-0.028
	c0.054,0.025,0.112,0.042,0.175,0.042h1.939v4.279H13.053z M13.467,11.68c-0.025,0-0.046,0.01-0.07,0.014h-2.184V7.243h7.106v4.438
	L13.467,11.68L13.467,11.68z"/>
</svg>
