<?xml version="1.0" encoding="utf-8"?>
<!-- Generator: Adobe Illustrator 21.0.2, SVG Export Plug-In . SVG Version: 6.00 Build 0)  -->
<svg version="1.1" id="Layer_1" xmlns="http://www.w3.org/2000/svg" xmlns:xlink="http://www.w3.org/1999/xlink" x="0px" y="0px"
	 viewBox="0 0 24 24" style="enable-background:new 0 0 24 24;" xml:space="preserve">
<path d="M21.776,11.679h-5.362V4.044c0.74-0.179,1.276-0.831,1.276-1.638c0-0.72-1.056-1.922-1.38-2.273
	c-0.08-0.087-0.2-0.138-0.311-0.133c-0.118,0.002-0.23,0.054-0.307,0.144c-0.511,0.593-1.37,1.677-1.37,2.263
	c0,0.802,0.53,1.45,1.263,1.634v7.638H12.35V9.517c0.709-0.192,1.217-0.806,1.217-1.561c0-0.701-1.061-1.851-1.386-2.187
	c-0.079-0.082-0.206-0.115-0.304-0.126c-0.115,0.002-0.223,0.051-0.3,0.136C10.949,6.474,10.2,7.416,10.2,7.956
	c0,0.793,0.558,1.435,1.322,1.592v2.131H8.335V5.974c0.74-0.177,1.276-0.819,1.276-1.612c0-0.713-1.058-1.891-1.383-2.235
	c-0.08-0.085-0.199-0.142-0.308-0.13C7.803,1.998,7.693,2.049,7.616,2.137C7.104,2.719,6.244,3.783,6.244,4.361
	c0,0.789,0.53,1.428,1.263,1.609v5.709H2.224c-0.229,0-0.414,0.185-0.414,0.414v11.494C1.811,23.815,1.996,24,2.224,24h19.551
	c0.229,0,0.414-0.185,0.414-0.414V12.092C22.189,11.864,22.004,11.679,21.776,11.679z M15.151,2.41
	c0.015-0.15,0.293-0.649,0.864-1.36c0.554,0.661,0.847,1.194,0.848,1.356c0,0.334-0.181,0.614-0.449,0.758V2.807
	c0-0.229-0.185-0.414-0.414-0.414s-0.414,0.185-0.414,0.414v0.351C15.326,3.011,15.152,2.736,15.151,2.41z M11.027,7.962
	c0.021-0.145,0.301-0.619,0.865-1.286c0.585,0.662,0.842,1.149,0.847,1.281c0,0.287-0.154,0.534-0.389,0.675v-0.35
	c0-0.229-0.185-0.414-0.414-0.414c-0.229,0-0.414,0.185-0.414,0.414v0.403C11.23,8.559,11.03,8.287,11.027,7.962z M7.072,4.365
	c0.018-0.148,0.296-0.636,0.864-1.327C8.486,3.68,8.78,4.201,8.783,4.361c0,0.323-0.181,0.595-0.449,0.735V4.652
	c0-0.229-0.185-0.414-0.414-0.414c-0.229,0-0.414,0.185-0.414,0.414V5.09C7.248,4.948,7.073,4.681,7.072,4.365z M21.362,23.172
	H2.638V14.98h18.724V23.172z M21.362,14.152H2.638v-1.646h9.29c0.003,0,0.005,0.002,0.008,0.002c0.003,0,0.005-0.002,0.008-0.002
	h9.418V14.152z"/>
</svg>
