<?xml version="1.0" encoding="utf-8"?>
<!-- Generator: Adobe Illustrator 21.0.2, SVG Export Plug-In . SVG Version: 6.00 Build 0)  -->
<svg version="1.1" id="Layer_1" xmlns="http://www.w3.org/2000/svg" xmlns:xlink="http://www.w3.org/1999/xlink" x="0px" y="0px"
	 viewBox="0 0 24 24" style="enable-background:new 0 0 24 24;" xml:space="preserve">
<path d="M16.619,7.382C16.142,3.233,12.614,0,8.341,0C3.741,0,0,3.741,0,8.339c0,4.273,3.232,7.801,7.38,8.279
	C7.857,20.767,11.386,24,15.661,24C20.259,24,24,20.259,24,15.662C24,11.388,20.767,7.859,16.619,7.382 M0.828,8.339
	c0-4.141,3.37-7.511,7.513-7.511c3.798,0,6.938,2.836,7.434,6.501c-0.038,0-0.075-0.006-0.114-0.006c-4.599,0-8.34,3.741-8.34,8.339
	c0,0.038,0.005,0.074,0.005,0.112C3.663,15.276,0.828,12.136,0.828,8.339 M15.851,8.339c0,4.142-3.369,7.512-7.51,7.512
	c-0.062,0-0.122-0.008-0.183-0.01c-0.002-0.06-0.009-0.119-0.009-0.179c0-4.142,3.37-7.512,7.513-7.512
	c0.061,0,0.12,0.008,0.181,0.01C15.843,8.22,15.851,8.278,15.851,8.339 M15.661,23.172c-3.799,0-6.94-2.836-7.437-6.501
	c0.039,0.001,0.077,0.006,0.116,0.006c4.597,0,8.338-3.741,8.338-8.339c0-0.038-0.005-0.074-0.006-0.112
	c3.664,0.497,6.5,3.637,6.5,7.435C23.172,19.803,19.803,23.172,15.661,23.172"/>
</svg>
