<?xml version="1.0" encoding="utf-8"?>
<!-- Generator: Adobe Illustrator 21.0.2, SVG Export Plug-In . SVG Version: 6.00 Build 0)  -->
<svg version="1.1" id="Layer_1" xmlns="http://www.w3.org/2000/svg" xmlns:xlink="http://www.w3.org/1999/xlink" x="0px" y="0px"
	 viewBox="0 0 24 24" style="enable-background:new 0 0 24 24;" xml:space="preserve">
<path id="Fill-1" d="M19.786,14.731c-0.118,0.032-0.235,0.057-0.353,0.084c-1.454-1.76-3.471-2.943-5.38-3.134
	c-0.204-0.655-0.702-1.18-1.338-1.424c0.713-1.339,2.298-2.916,4.817-3.639c1.457-0.418,4.701,0.781,5.611,2.798L23.15,9.44
	C23.411,11.635,21.251,14.337,19.786,14.731 M18.397,22.158l-0.02,0.013c-1.999,0.948-5.249-0.237-6.089-1.497
	c-0.068-0.103-0.129-0.207-0.192-0.31c1.396-2.241,1.632-4.633,1.209-6.271c0.471-0.374,0.788-0.934,0.84-1.567
	c1.495,0.211,3.574,1.193,5.112,3.42C20.118,17.193,20.017,20.651,18.397,22.158 M10.966,20.558
	c-0.908,1.215-4.219,2.223-6.162,1.167l-0.02-0.014c-1.535-1.593-1.45-5.05-0.523-6.248c0.076-0.098,0.156-0.189,0.235-0.282
	c0.771,0.183,1.51,0.269,2.201,0.269c1.757,0,3.21-0.515,4.154-1.142c0.318,0.173,0.681,0.271,1.067,0.271
	c0.219,0,0.43-0.033,0.631-0.092C12.898,16.086,12.553,18.432,10.966,20.558 M0.875,8.708l0.007-0.023
	c1.017-1.964,4.322-2.989,5.755-2.492c0.115,0.04,0.227,0.085,0.339,0.129c0.245,2.7,1.534,4.659,2.738,5.654
	c-0.02,0.12-0.033,0.242-0.033,0.367c0,0.533,0.188,1.023,0.501,1.407c-1.21,0.708-3.336,1.226-5.795,0.555
	c-0.146-0.04-0.293-0.084-0.439-0.132C2.508,13.702,0.497,10.887,0.875,8.708 M11.917,10.934c0.777,0,1.409,0.632,1.409,1.409
	c0,0.776-0.632,1.408-1.409,1.408s-1.408-0.632-1.408-1.408C10.509,11.566,11.141,10.934,11.917,10.934 M11.958,0.827h0.024
	c2.187,0.338,4.212,3.142,4.199,4.657c-0.002,0.252-0.018,0.503-0.041,0.753c-2.233,0.953-3.645,2.543-4.275,3.872
	c-0.772,0.018-1.447,0.429-1.835,1.04c-1.175-1.092-2.249-3.136-2.27-5.665C7.746,3.97,9.771,1.165,11.958,0.827 M23.968,9.304
	l-0.055-0.196c-1.098-2.496-4.84-3.794-6.61-3.286c-0.107,0.031-0.208,0.066-0.312,0.099C17,5.778,17.007,5.635,17.008,5.492
	c0.016-1.839-2.237-5.098-4.937-5.488L12.042,0l-0.174,0.005C9.202,0.39,6.975,3.57,6.936,5.421C6.926,5.417,6.917,5.413,6.908,5.41
	c-1.74-0.601-5.546,0.493-6.777,2.927L0.066,8.53c-0.486,2.648,1.818,5.774,3.559,6.403c-0.006,0.008-0.013,0.015-0.019,0.023
	l0.327,0.253l-0.327-0.253c-1.125,1.455-1.303,5.413,0.61,7.356l0.163,0.123c0.714,0.396,1.552,0.563,2.405,0.563
	c1.96,0,3.996-0.881,4.8-1.891c0.005,0.008,0.01,0.016,0.015,0.024c0.756,1.133,2.977,2.212,5.074,2.212
	c0.735,0,1.455-0.132,2.092-0.442l0.168-0.114c1.99-1.816,2.047-5.698,1.04-7.252c0.01-0.002,0.02-0.004,0.029-0.007
	C21.779,15.052,24.315,12.009,23.968,9.304"/>
</svg>
