<svg width="24px" height="24px" viewBox="0 0 24 24" version="1.1" xmlns="http://www.w3.org/2000/svg" xmlns:xlink="http://www.w3.org/1999/xlink">
    <path d="M0,12 C0,5.372583 5.37112582,0 12,0 C18.627417,0 24,5.37112582 24,12 C24,18.627417 18.6288742,24 12,24 C5.372583,24 0,18.6288742 0,12 Z M15.8486256,10.875532 C13.0334021,12.8640351 9.70115026,11.9638285 8.14831565,10.8737823 C7.7528896,10.5947095 7.20786652,10.6918164 6.93054338,11.0872424 C6.65234541,11.4826685 6.74857741,12.0276915 7.14400347,12.3050147 C8.41776526,13.1999723 10.189309,13.8149823 12.0772059,13.8149823 C13.6667837,13.8149823 15.3368463,13.3784389 16.8581868,12.303265 C17.2527381,12.025067 17.3472204,11.4791691 17.0681476,11.0846179 C16.7899496,10.6918164 16.2449265,10.5955844 15.8486256,10.875532 Z" id="Combined-Shape"></path>
</svg>