<?xml version="1.0" encoding="utf-8"?>
<!-- Generator: Adobe Illustrator 21.0.2, SVG Export Plug-In . SVG Version: 6.00 Build 0)  -->
<svg version="1.1" id="Layer_1" xmlns="http://www.w3.org/2000/svg" xmlns:xlink="http://www.w3.org/1999/xlink" x="0px" y="0px"
	 viewBox="0 0 24 24" style="enable-background:new 0 0 24 24;" xml:space="preserve">
<path id="Shape" d="M0.634,19.615c-0.044,0.164-0.212,0.262-0.377,0.218c-0.164-0.044-0.262-0.212-0.218-0.377
	c0.261-0.979,1.823-1.876,3.44-1.876c1.223,0,2.057,0.207,3.284,0.702c0.066,0.027,0.29,0.117,0.294,0.119
	c0.115,0.047,0.202,0.081,0.286,0.114c0.737,0.287,1.259,0.415,1.889,0.424c0.826,0.011,1.454-0.22,1.92-0.608
	c0.157-0.131,0.283-0.271,0.382-0.409c0.056-0.08,0.09-0.138,0.102-0.164c0.11-0.237,0.448-0.237,0.558,0
	c0.012,0.026,0.045,0.084,0.102,0.164c0.098,0.138,0.225,0.278,0.382,0.409c0.465,0.388,1.093,0.619,1.92,0.608
	c0.63-0.008,1.152-0.136,1.889-0.424c0.084-0.033,0.171-0.068,0.286-0.114c0.004-0.002,0.228-0.093,0.294-0.119
	c1.228-0.495,2.062-0.702,3.284-0.702c1.567,0,3.111,0.893,3.441,1.866c0.055,0.161-0.032,0.336-0.193,0.39s-0.336-0.032-0.39-0.193
	c-0.237-0.697-1.535-1.448-2.858-1.448c-1.131,0-1.893,0.19-3.054,0.657c-0.065,0.026-0.288,0.117-0.293,0.119
	c-0.117,0.047-0.206,0.083-0.294,0.117c-0.799,0.312-1.389,0.456-2.105,0.466c-0.975,0.013-1.745-0.27-2.322-0.751
	c-0.344-0.287-0.551-0.578-0.647-0.786h0.558c-0.097,0.208-0.303,0.499-0.647,0.786c-0.576,0.481-1.346,0.763-2.322,0.751
	c-0.716-0.009-1.305-0.154-2.105-0.466c-0.087-0.034-0.176-0.07-0.294-0.117c-0.005-0.002-0.228-0.093-0.293-0.119
	c-1.161-0.468-1.924-0.657-3.054-0.657C2.114,18.196,0.813,18.944,0.634,19.615z M10.58,12.178
	c-0.139,0.098-0.331,0.065-0.429-0.074c-0.098-0.139-0.065-0.331,0.074-0.429c0.535-0.378,1.122-0.532,1.682-0.532
	c0.664,0,1.287,0.216,1.735,0.531c0.139,0.098,0.173,0.289,0.075,0.428c-0.098,0.139-0.289,0.173-0.428,0.075
	C12.742,11.795,11.57,11.479,10.58,12.178z M0.611,6.077c-0.028,0.168-0.187,0.28-0.355,0.252C0.089,6.3-0.024,6.141,0.004,5.974
	C0.175,4.965,1.792,4,3.465,4C4.688,4,5.522,4.207,6.75,4.702c0.066,0.027,0.29,0.117,0.294,0.119
	C7.159,4.868,7.246,4.902,7.33,4.935c0.737,0.287,1.259,0.415,1.889,0.424c0.826,0.011,1.454-0.22,1.92-0.608
	c0.157-0.131,0.283-0.271,0.382-0.409c0.056-0.08,0.09-0.138,0.102-0.164c0.11-0.237,0.448-0.237,0.558,0
	c0.012,0.026,0.045,0.084,0.102,0.164c0.098,0.138,0.225,0.278,0.382,0.409c0.465,0.388,1.093,0.619,1.92,0.608
	c0.63-0.008,1.152-0.136,1.889-0.424c0.084-0.033,0.171-0.068,0.286-0.114c0.004-0.002,0.228-0.093,0.294-0.119
	C18.281,4.207,19.115,4,20.337,4c1.599,0,3.177,0.934,3.459,1.923c0.047,0.163-0.048,0.334-0.212,0.38
	c-0.163,0.047-0.334-0.048-0.38-0.212c-0.198-0.694-1.52-1.477-2.867-1.477c-1.131,0-1.893,0.19-3.054,0.657
	c-0.065,0.026-0.288,0.117-0.293,0.119c-0.117,0.047-0.206,0.083-0.294,0.117c-0.799,0.312-1.389,0.456-2.105,0.466
	c-0.975,0.013-1.745-0.27-2.322-0.751c-0.344-0.287-0.551-0.578-0.647-0.786h0.558c-0.097,0.208-0.303,0.499-0.647,0.786
	c-0.576,0.481-1.346,0.763-2.322,0.751C8.496,5.965,7.906,5.821,7.107,5.509C7.019,5.475,6.93,5.439,6.813,5.391
	C6.808,5.389,6.585,5.299,6.52,5.273C5.359,4.805,4.596,4.615,3.465,4.615C2.06,4.615,0.723,5.414,0.611,6.077z"/>
</svg>
