<svg width="24px" height="24px" viewBox="0 0 24 24" version="1.1" xmlns="http://www.w3.org/2000/svg" xmlns:xlink="http://www.w3.org/1999/xlink">
    <path d="M23.174353,4.23789799 C23.2181228,4.07369784 23.3867158,3.97606979 23.5509159,4.01983963 C23.7151161,4.06360947 23.8127441,4.23220245 23.7689743,4.39640259 C23.5081359,5.37492347 21.9460162,6.27239731 20.3292034,6.27239731 C19.1064664,6.27239731 18.2725213,6.0650775 17.0447556,5.57044128 C16.978956,5.54393223 16.7549622,5.4530285 16.7506198,5.45127089 C16.635599,5.40471517 16.5486289,5.36996428 16.4641521,5.336996 C15.7276184,5.04955326 15.2051827,4.92151835 14.5752173,4.9134338 C13.7488839,4.90282918 13.1210855,5.13317607 12.6556197,5.52135527 C12.4986659,5.65224826 12.3722712,5.79188443 12.2740951,5.93031292 C12.2176637,6.00988133 12.1845424,6.06806521 12.1723733,6.09427592 C12.0621096,6.33177111 11.7244761,6.33177111 11.6142123,6.09427592 C11.6020433,6.06806521 11.5689219,6.00988133 11.5124905,5.93031292 C11.4143145,5.79188443 11.2879198,5.65224826 11.130966,5.52135527 C10.6655002,5.13317607 10.0377018,4.90282918 9.21136836,4.9134338 C8.58140299,4.92151835 8.05896727,5.04955326 7.32243358,5.336996 C7.23795674,5.36996428 7.15098666,5.40471517 7.03596583,5.45127089 C7.03162346,5.4530285 6.80762969,5.54393223 6.74183004,5.57044128 C5.51406432,6.0650775 4.6801193,6.27239731 3.45738229,6.27239731 C1.89073611,6.27239731 0.346309179,5.37918915 0.0163136344,4.40655092 C-0.0382844688,4.24562692 0.0479096991,4.07091174 0.208833697,4.01631363 C0.369757695,3.96171553 0.544472878,4.0479097 0.599070981,4.2088337 C0.835606798,4.90600607 2.13415612,5.6570127 3.45738229,5.6570127 C4.58809642,5.6570127 5.35080249,5.46740298 6.51186788,4.99963865 C6.57680558,4.97347687 6.80009734,4.88285804 6.80507942,4.8808415 C6.92227619,4.83340505 7.01141701,4.79778679 7.09870502,4.7637214 C7.89810183,4.45174544 8.48755035,4.3072875 9.20347157,4.29809985 C10.1789075,4.28558176 10.9486415,4.56800655 11.5251,5.04874908 C11.8691371,5.33566178 12.0757066,5.62692524 12.1723733,5.83513409 L11.6142123,5.83513409 C11.7108791,5.62692524 11.9174486,5.33566178 12.2614857,5.04874908 C12.8379442,4.56800655 13.6076782,4.28558176 14.5831141,4.29809985 C15.2990353,4.3072875 15.8884838,4.45174544 16.6878806,4.7637214 C16.7751686,4.79778679 16.8643095,4.83340505 16.9815062,4.8808415 C16.9864883,4.88285804 17.2097801,4.97347687 17.2747178,4.99963865 C18.4357832,5.46740298 19.1984892,5.6570127 20.3292034,5.6570127 C21.6936583,5.6570127 22.9954309,4.90911429 23.174353,4.23789799 Z M13.2285418,11.6744615 C13.3679264,11.576 13.5596187,11.6098462 13.6574648,11.748 C13.7556187,11.8867692 13.7223879,12.0787692 13.5836187,12.1766154 C13.0485418,12.5547692 12.4611571,12.7083077 11.9020802,12.7083077 C11.2380802,12.7083077 10.6150033,12.492 10.1670033,12.1772308 C10.0279264,12.0796923 9.99408022,11.888 10.0919264,11.7489231 C10.1894648,11.6098462 10.3811571,11.5756923 10.5202341,11.6738462 C11.0663879,12.0572308 12.2383879,12.3738462 13.2285418,11.6744615 Z M23.1970259,17.7760538 C23.225442,17.6085128 23.3842967,17.4957297 23.5518378,17.5241459 C23.7193789,17.5525621 23.8321619,17.7114168 23.8037457,17.8789578 C23.6327508,18.8871403 22.0160745,19.8527155 20.3426278,19.8527155 C19.1198908,19.8527155 18.2859457,19.6453957 17.05818,19.1507595 C16.9923804,19.1242504 16.7683866,19.0333467 16.7640442,19.0315891 C16.6490234,18.9850334 16.5620533,18.9502825 16.4775765,18.9173142 C15.7410428,18.6298715 15.2186071,18.5018366 14.5886417,18.493752 C13.7623083,18.4831474 13.1345099,18.7134943 12.6690441,19.1016735 C12.5120903,19.2325665 12.3856956,19.3722026 12.2875195,19.5106311 C12.2310881,19.5901995 12.1979668,19.6483834 12.1857977,19.6745941 C12.075534,19.9120893 11.7379005,19.9120893 11.6276367,19.6745941 C11.6154677,19.6483834 11.5823463,19.5901995 11.5259149,19.5106311 C11.4277389,19.3722026 11.3013442,19.2325665 11.1443904,19.1016735 C10.6789246,18.7134943 10.0511262,18.4831474 9.22479275,18.493752 C8.59482739,18.5018366 8.07239166,18.6298715 7.33585798,18.9173142 C7.25138113,18.9502825 7.16441106,18.9850334 7.04939022,19.0315891 C7.04504785,19.0333467 6.82105409,19.1242504 6.75525443,19.1507595 C5.52748872,19.6453957 4.6935437,19.8527155 3.47080668,19.8527155 C1.87152725,19.8527155 0.293578565,18.9190027 0.0117627805,17.929274 C-0.0347744483,17.7658367 0.0599918361,17.5956186 0.223429201,17.5490814 C0.386866566,17.5025442 0.557084606,17.5973105 0.603621835,17.7607478 C0.801323776,18.4550712 2.12332097,19.2373309 3.47080668,19.2373309 C4.60152082,19.2373309 5.36422688,19.0477212 6.52529228,18.5799569 C6.59022998,18.5537951 6.81352174,18.4631762 6.81850381,18.4611597 C6.93570059,18.4137233 7.02484141,18.378105 7.11212942,18.3440396 C7.91152623,18.0320636 8.50097474,17.8876057 9.21689597,17.8784181 C10.1923319,17.8659 10.9620659,18.1483248 11.5385244,18.6290673 C11.8825615,18.91598 12.089131,19.2072434 12.1857977,19.4154523 L11.6276367,19.4154523 C11.7243035,19.2072434 11.930873,18.91598 12.2749101,18.6290673 C12.8513686,18.1483248 13.6211026,17.8659 14.5965385,17.8784181 C15.3124597,17.8876057 15.9019082,18.0320636 16.701305,18.3440396 C16.788593,18.378105 16.8777339,18.4137233 16.9949306,18.4611597 C16.9999127,18.4631762 17.2232045,18.5537951 17.2881422,18.5799569 C18.4492076,19.0477212 19.2119136,19.2373309 20.3426278,19.2373309 C21.7478076,19.2373309 23.0845991,18.4389195 23.1970259,17.7760538 Z" id="Shape"></path>
</svg>