<svg width="24px" height="24px" viewBox="0 0 24 24" version="1.1" xmlns="http://www.w3.org/2000/svg" xmlns:xlink="http://www.w3.org/1999/xlink">
    <path d="M23.2067703,17.6596161 L23.2785722,18.2962387 C23.2957201,18.4482785 23.4328739,18.5576299 23.5849137,18.540482 C23.7369535,18.5233341 23.8463049,18.3861804 23.829157,18.2341406 L23.698487,17.0755707 C23.6909282,17.0028178 23.6554573,16.9389254 23.6033437,16.8941963 C23.5500699,16.848916 23.4814152,16.8238769 23.4083756,16.8277922 L22.2436283,16.8799711 C22.0907779,16.8868186 21.9724191,17.0162794 21.9792665,17.1691298 C21.986114,17.3219803 22.1155748,17.4403391 22.2684252,17.4334916 L22.6984257,17.4142282 C22.5858224,18.0606981 21.2951359,18.8305398 19.9392848,18.8305398 C18.8505876,18.8305398 18.1159484,18.6479075 16.998862,18.1978612 C16.9364701,18.1727251 16.7220001,18.0856864 16.7172345,18.0837575 C16.6047443,18.038226 16.5191988,18.0040444 16.435452,17.971361 C15.6695998,17.6724763 15.1055059,17.5342321 14.4205166,17.5254414 C13.488185,17.5134765 12.7531941,17.7831536 12.2028958,18.2420796 C12.0124837,18.4008754 11.8579851,18.5715597 11.7361615,18.7433314 C11.6608395,18.8495355 11.6119197,18.9354725 11.5861787,18.9909154 L12.0887318,18.9909154 C12.0629909,18.9354725 12.014071,18.8495355 11.9387491,18.7433314 C11.8169254,18.5715597 11.6624269,18.4008754 11.4720148,18.2420796 C10.9217165,17.7831536 10.1867255,17.5134765 9.25439398,17.5254414 C8.56940459,17.5342321 8.00531078,17.6724763 7.23945856,17.971361 C7.15571172,18.0040444 7.07016622,18.038226 6.95767601,18.0837575 C6.95291043,18.0856864 6.73844046,18.1727251 6.67604857,18.1978612 C5.55896214,18.6479075 4.82432289,18.8305398 3.73562575,18.8305398 C2.43394656,18.8305398 1.1566217,18.0747138 0.96422474,17.3990214 C0.92232388,17.2518668 0.769064171,17.1665418 0.621909598,17.2084427 C0.474755026,17.2503435 0.389430032,17.4036033 0.431330891,17.5507578 C0.699461677,18.4924252 2.20723832,19.3846154 3.73562575,19.3846154 C4.9071778,19.3846154 5.70595867,19.1860374 6.88310026,18.7117964 C6.94626823,18.6863476 7.16137027,18.5990524 7.16555987,18.5973566 C7.27609093,18.5526182 7.35968194,18.5192175 7.44089768,18.4875219 C8.15014965,18.2107262 8.65390697,18.0872689 9.26150403,18.0794714 C10.0595877,18.0692293 10.6667837,18.2920169 11.1171472,18.6676014 C11.2691651,18.7943781 11.3916223,18.9296643 11.4867986,19.0638631 C11.5416767,19.1412413 11.5740383,19.1980905 11.5861787,19.2242397 C11.6854572,19.4380739 11.9894533,19.4380739 12.0887318,19.2242397 C12.1008723,19.1980905 12.1332339,19.1412413 12.1881119,19.0638631 C12.2832882,18.9296643 12.4057454,18.7943781 12.5577633,18.6676014 C13.0081268,18.2920169 13.6153228,18.0692293 14.4134065,18.0794714 C15.0210036,18.0872689 15.5247609,18.2107262 16.2340129,18.4875219 C16.3152286,18.5192175 16.3988196,18.5526182 16.5093507,18.5973566 C16.5135403,18.5990524 16.7286423,18.6863476 16.7918103,18.7117964 C17.9689519,19.1860374 18.7677327,19.3846154 19.9392848,19.3846154 C21.4517838,19.3846154 22.9151956,18.5595134 23.2067703,17.6596161 Z M1.05556808,4.58338934 C1.43472004,5.19696002 2.56910284,5.78803269 3.72273299,5.78803269 C4.81143014,5.78803269 5.54606938,5.60540042 6.66315581,5.15535412 C6.7255477,5.13021798 6.94001767,5.04317931 6.94478325,5.0412504 C7.05727346,4.99571897 7.14281896,4.96153731 7.2265658,4.92885391 C7.99241802,4.6299692 8.55651183,4.49172502 9.24150122,4.48293432 C10.1738327,4.4709694 10.9088237,4.74064656 11.459122,5.19957255 C11.6495341,5.35836837 11.8040326,5.52905265 11.9258563,5.70082431 C12.0011783,5.80702842 12.0500981,5.89296539 12.075839,5.94840836 L11.573286,5.94840836 C11.5990269,5.89296539 11.6479468,5.80702842 11.7232687,5.70082431 C11.8450924,5.52905265 11.9995909,5.35836837 12.190003,5.19957255 C12.7403013,4.74064656 13.4752923,4.4709694 14.4076238,4.48293432 C15.0926132,4.49172502 15.656707,4.6299692 16.4225592,4.92885391 C16.5063061,4.96153731 16.5918516,4.99571897 16.7043418,5.0412504 C16.7091073,5.04317931 16.9235773,5.13021798 16.9859692,5.15535412 C18.1030556,5.60540042 18.8376949,5.78803269 19.926392,5.78803269 C21.2443853,5.78803269 22.5024185,5.06526362 22.6767133,4.41140603 C22.7161225,4.26356467 22.8679191,4.17566302 23.0157604,4.2150722 C23.1636018,4.25448137 23.2515034,4.40627792 23.2120943,4.55411928 C22.9640442,5.48466558 21.4716015,6.34210831 19.926392,6.34210831 C18.75484,6.34210831 17.9560591,6.14353035 16.7789175,5.66928933 C16.7157495,5.64384053 16.5006475,5.55654534 16.4964579,5.55484956 C16.3859268,5.51011112 16.3023358,5.47671041 16.2211201,5.44501482 C15.5118681,5.16821916 15.0081108,5.04476182 14.4005137,5.03696433 C13.60243,5.02672225 12.995234,5.24950987 12.5448706,5.62509435 C12.3928527,5.75187099 12.2703955,5.8871572 12.1752192,6.02135603 C12.1203411,6.09873422 12.0879795,6.15558348 12.075839,6.18173264 C11.9765605,6.39556687 11.6725645,6.39556687 11.573286,6.18173264 C11.5611455,6.15558348 11.5287839,6.09873422 11.4739059,6.02135603 C11.3787295,5.8871572 11.2562723,5.75187099 11.1042544,5.62509435 C10.653891,5.24950987 10.046695,5.02672225 9.24861127,5.03696433 C8.64101421,5.04476182 8.13725689,5.16821916 7.42800492,5.44501482 C7.34678918,5.47671041 7.26319817,5.51011112 7.15266711,5.55484956 C7.14847751,5.55654534 6.93337547,5.64384053 6.8702075,5.66928933 C5.69306591,6.14353035 4.89428504,6.34210831 3.72273299,6.34210831 C2.42016029,6.34210831 1.13379324,5.69611902 0.61442337,4.91852673 L0.552355216,5.46884628 C0.535207307,5.62088608 0.398053573,5.73023756 0.246013777,5.71308965 C0.0939739809,5.69594174 -0.0153774995,5.558788 0.0017704094,5.40674821 L0.132440475,4.24817837 C0.139999275,4.17542543 0.175470127,4.11153299 0.227583743,4.06680395 C0.280857516,4.02152366 0.349512193,3.99648449 0.422551882,4.00039982 L1.58729911,4.05257877 C1.74014956,4.05942625 1.85850837,4.188887 1.85166089,4.34173746 C1.84481342,4.49458791 1.71535267,4.61294672 1.56250221,4.60609924 L1.05556808,4.58338934 Z M13.1069326,11.5487078 C13.2407972,11.4541456 13.4248981,11.4866514 13.5188693,11.619334 C13.6131361,11.7526077 13.5812213,11.937004 13.4479477,12.0309753 C12.934061,12.3941534 12.3699381,12.5416114 11.8330019,12.5416114 C11.1952978,12.5416114 10.5968961,12.3338699 10.1666379,12.0315663 C10.0330688,11.9378906 10.000563,11.7537897 10.0945342,11.6202205 C10.1882099,11.4866514 10.3723108,11.4538501 10.50588,11.5481168 C11.0304049,11.9163185 12.155991,12.2203952 13.1069326,11.5487078 Z" id="Shape"></path>
</svg>