<svg width="24px" height="24px" viewBox="0 0 24 24" version="1.1" xmlns="http://www.w3.org/2000/svg" xmlns:xlink="http://www.w3.org/1999/xlink">
    <path d="M16.8096,4.8 L7.1904,4.8 C5.87712,4.8 4.8,5.87568 4.8,7.1904 L4.8,16.8096 C4.8,18.12288 5.87712,19.2 7.1904,19.2 L16.8096,19.2 C18.12432,19.2 19.2,18.1236 19.2,16.8096 L19.2,7.1904 C19.2,5.87568 18.12432,4.8 16.8096,4.8 L16.8096,4.8 Z M9.40944,11.1 L14.58984,11.1 C14.68776,11.38224 14.74104,11.68464 14.74104,12 C14.74104,13.512 13.51128,14.7432 11.99928,14.7432 C10.48728,14.7432 9.2568,13.512 9.2568,12 C9.2568,11.68464 9.31008,11.38224 9.408,11.1 L9.40944,11.1 Z M17.4,11.1 L17.4,16.5 C17.4,16.99536 16.99464,17.4 16.5,17.4 L7.5,17.4 C7.00464,17.4 6.6,16.99464 6.6,16.5 L6.6,11.1 L8.0076,11.1 C7.9428,11.38944 7.9068,11.6904 7.9068,12 C7.9068,14.25648 9.7428,16.09248 12,16.09248 C14.2572,16.09248 16.09248,14.25648 16.09248,12 C16.09248,11.6904 16.05792,11.38944 15.99168,11.1 L17.4,11.1 L17.4,11.1 Z M17.4,7.95 C17.4,8.19768 17.1984,8.4 16.95,8.4 L16.05,8.4 C15.8016,8.4 15.6,8.1984 15.6,7.95 L15.6,7.05 C15.6,6.80232 15.8016,6.6 16.05,6.6 L16.95,6.6 C17.19768,6.6 17.4,6.8016 17.4,7.05 L17.4,7.95 L17.4,7.95 Z" id="Shape"></path>
</svg>