<svg width="24px" height="24px" viewBox="0 0 24 24" version="1.1" xmlns="http://www.w3.org/2000/svg" xmlns:xlink="http://www.w3.org/1999/xlink">
    <path d="M14.990413,8.91847826 C14.9561739,9.27221739 14.6599565,9.53693478 14.3138478,9.53693478 C14.2917391,9.53693478 14.2694348,9.53576087 14.2469348,9.5336087 C13.8726522,9.49682609 13.5991304,9.16206522 13.6355217,8.78543478 C13.7441087,7.66552174 12.7662391,7.26795652 12.6545217,7.22628261 C12.3043043,7.09578261 12.1207826,6.70467391 12.2471739,6.35113043 C12.3737609,5.99758696 12.7566522,5.81171739 13.1090217,5.93536957 C13.835087,6.1905 15.162587,7.14234783 14.990413,8.91847826 M13.6206522,20.0070652 C13.6537174,20.438087 13.3332391,20.8143261 12.9047609,20.847587 L10.9658478,20.9976522 C10.9455,20.9992174 10.9251522,21 10.9051957,21 C10.5027391,21 10.161913,20.6879348 10.130413,20.2774565 C10.0975435,19.8464348 10.4180217,19.4701957 10.8463043,19.4371304 L12.785413,19.2868696 C13.2144783,19.2555652 13.587587,19.5762391 13.6206522,20.0070652 M15.3232174,17.535587 C15.3543261,17.9668043 15.0322826,18.3416739 14.6038043,18.3729783 L9.25995652,18.7635 C9.24078261,18.7648696 9.22180435,18.7656522 9.20282609,18.7656522 C8.79880435,18.7656522 8.45758696,18.4514348 8.42784783,18.0397826 C8.39673913,17.6085652 8.71878261,17.2336957 9.14726087,17.2023913 L14.4911087,16.8118696 C14.9186087,16.7801739 15.2921087,17.1045652 15.3232174,17.535587 M14.2111304,12.4842391 C13.9575652,12.6202174 13.8284348,12.8857174 13.8284348,13.1748913 L13.8284348,14.3687609 L9.9153913,14.6759348 L9.9153913,13.1754783 C9.9153913,12.8970652 9.80152174,12.6397826 9.56243478,12.4995 C8.21536957,11.7088696 7.57695652,10.5423913 7.57695652,8.93295652 C7.57695652,6.52467391 9.50452174,4.56521739 11.8636957,4.56521739 C14.2228696,4.56521739 16.161,6.52467391 16.161,8.93295652 C16.161,10.4960217 15.4439348,11.8235217 14.2111304,12.4842391 M11.871913,3 C8.655,3 6,5.66165217 6,8.93295652 C6,10.9278261 6.78495652,12.5343261 8.35017391,13.6065 L8.35017391,15.5242826 C8.35017391,15.7426304 8.47871739,15.9511957 8.63836957,16.0995 C8.78256522,16.2333261 8.98995652,16.3068913 9.18482609,16.3068913 C9.20556522,16.3068913 9.23569565,16.305913 9.25663043,16.3043478 L14.639413,15.8707826 C15.0434348,15.8381087 15.3936522,15.4986522 15.3936522,15.0907174 L15.3936522,13.6196087 C16.7632174,12.6266739 17.7405,10.9096304 17.7405,8.93295652 C17.7405,5.66165217 15.0890217,3 11.871913,3" id="lightbulb"></path>
</svg>