<svg version="1.1" id="Layer_1" xmlns="http://www.w3.org/2000/svg" xmlns:xlink="http://www.w3.org/1999/xlink" x="0px" y="0px"
	 viewBox="0 0 76.955 77" style="enable-background:new 0 0 76.955 77;" xml:space="preserve">
  <path class="shadow" d="M13.284,35.857h20.379 M43.465,41.214h20.379 M64.122,2.5c-5.668,0-10.263,4.595-10.263,10.263l0.01,30.351
	c0,5.668-4.595,10.936-10.263,10.936l0,0H12.738C7.084,54.05,2.5,58.634,2.5,64.288S7.178,74.5,12.832,74.5
	c5.668,0,10.263-4.595,10.263-10.263l-0.01-31.293c0-5.668,4.595-9.994,10.263-9.994h30.869c5.654,0,10.238-4.584,10.238-10.238
	S69.777,2.5,64.122,2.5z"/>
<line id="dash_left" class="crossbar bar-left icon" x1="13.284" y1="35.857" x2="33.663" y2="35.857"/>
<line id="dash_right" class="crossbar bar-right icon" x1="43.465" y1="41.214" x2="63.844" y2="41.214"/>
<path id="loop" class="icon loop" d="M64.122,2.5c-5.668,0-10.263,4.595-10.263,10.263l0.01,30.351
	c0,5.668-4.595,10.936-10.263,10.936l0,0H12.738C7.084,54.05,2.5,58.634,2.5,64.288S7.178,74.5,12.832,74.5
	c5.668,0,10.263-4.595,10.263-10.263l-0.01-31.293c0-5.668,4.595-9.994,10.263-9.994h30.869c5.654,0,10.238-4.584,10.238-10.238
	S69.777,2.5,64.122,2.5z"/>
</svg>