<?xml version="1.0" encoding="utf-8"?>
<!-- Generator: Adobe Illustrator 25.0.1, SVG Export Plug-In . SVG Version: 6.00 Build 0)  -->
<svg version="1.1" id="Layer_1" xmlns="http://www.w3.org/2000/svg" xmlns:xlink="http://www.w3.org/1999/xlink" x="0px" y="0px"
	 viewBox="0 0 180 24" style="enable-background:new 0 0 180 24;" xml:space="preserve">
<path d="M48,8.1h-4.1v3h3.2c0.7,0,1.1,0.4,1.1,1.1v0.8c0,0.7-0.4,1.1-1.1,1.1h-3.2v4.2c0,0.7-0.4,1.1-1.1,1.1h-1.3
	c-0.7,0-1.1-0.4-1.1-1.1v-12c0-0.7,0.4-1.1,1.1-1.1H48c0.7,0,1.1,0.4,1.1,1.1V7C49.1,7.7,48.8,8.1,48,8.1z M53.6,12.1
	c0-4.1,3-7.2,7.4-7.2c4.4,0,7.4,3.2,7.4,7.2c0,4.2-3,7.4-7.4,7.4C56.6,19.5,53.6,16.3,53.6,12.1z M64.8,12.1C64.8,9.8,63.2,8,61,8
	c-2.2,0-3.8,1.7-3.8,4.1c0,2.4,1.6,4.2,3.8,4.2C63.2,16.3,64.8,14.5,64.8,12.1z M78.1,12.7c-0.6-0.9-1.2-2.4-1.2-2.4h0
	c0,0,0.2,1.5,0.2,2.4v5.5c0,0.7-0.4,1.1-1.1,1.1h-1.3c-0.7,0-1.1-0.4-1.1-1.1v-12c0-0.7,0.4-1.1,1.1-1.1h1.5c0.6,0,1,0.2,1.3,0.7
	l3.5,5.9c0.6,0.9,1.2,2.4,1.2,2.4h0c0,0-0.2-1.5-0.2-2.4V6.2c0-0.7,0.4-1.1,1.1-1.1h1.3c0.7,0,1.1,0.4,1.1,1.1v12
	c0,0.7-0.4,1.1-1.1,1.1h-1.5c-0.6,0-1-0.2-1.3-0.7L78.1,12.7z M93.3,5.1h3.9c4.5,0,7.3,2.6,7.3,7.1c0,4.5-2.9,7.1-7.3,7.1h-3.9
	c-0.7,0-1.1-0.4-1.1-1.1v-12C92.2,5.5,92.6,5.1,93.3,5.1z M101,12.2c0-2.7-1.5-4.1-3.9-4.1h-1.4v8.2h1.4
	C99.5,16.3,101,14.9,101,12.2z M117.4,8.1h-4.1v3h3.2c0.7,0,1.1,0.4,1.1,1.1v0.8c0,0.7-0.4,1.1-1.1,1.1h-3.2v4.2
	c0,0.7-0.4,1.1-1.1,1.1h-1.3c-0.7,0-1.1-0.4-1.1-1.1v-12c0-0.7,0.4-1.1,1.1-1.1h6.5c0.7,0,1.1,0.4,1.1,1.1V7
	C118.5,7.7,118.1,8.1,117.4,8.1z M122.5,12.1c0-4.1,3-7.2,7.4-7.2c4.4,0,7.4,3.2,7.4,7.2c0,4.2-3,7.4-7.4,7.4
	C125.5,19.5,122.5,16.3,122.5,12.1z M133.7,12.1c0-2.3-1.6-4.1-3.8-4.1c-2.2,0-3.8,1.7-3.8,4.1c0,2.4,1.6,4.2,3.8,4.2
	C132.2,16.3,133.7,14.5,133.7,12.1z M144.9,5.1c0.7,0,1.1,0.4,1.1,1.1v10.1h4.7c0.7,0,1.1,0.4,1.1,1.1v0.8c0,0.7-0.4,1.1-1.1,1.1
	h-7.1c-0.7,0-1.1-0.4-1.1-1.1v-12c0-0.7,0.4-1.1,1.1-1.1H144.9z M157.4,5.1h1.3c0.7,0,1.1,0.4,1.1,1.1v12c0,0.7-0.4,1.1-1.1,1.1
	h-1.3c-0.7,0-1.1-0.4-1.1-1.1v-12C156.4,5.5,156.7,5.1,157.4,5.1z M165,12.1c0-4.1,3-7.2,7.4-7.2c4.4,0,7.4,3.2,7.4,7.2
	c0,4.2-3,7.4-7.4,7.4C168,19.5,165,16.3,165,12.1z M176.2,12.1c0-2.3-1.6-4.1-3.8-4.1c-2.2,0-3.8,1.7-3.8,4.1c0,2.4,1.6,4.2,3.8,4.2
	C174.7,16.3,176.2,14.5,176.2,12.1z M17.5,6.4l0-2.3c0-1.3,1.1-2.3,2.3-2.3c1.3,0,2.4,1,2.4,2.3c0,1.3-1,2.3-2.3,2.3H17.5z
	 M13.5,13.7h2.4c-0.1,0.6-0.3,1.1-0.7,1.5c-0.5,0.5-1,0.8-1.6,0.8H8l0-4h2.4c0.5,0,0.8-0.4,0.8-0.8s-0.4-0.8-0.8-0.8H8v-0.1
	C8,9,9,8.1,10.3,8.1h5.5l0,4h-2.4c-0.5,0-0.8,0.4-0.8,0.8C12.6,13.3,13,13.7,13.5,13.7L13.5,13.7z M4,22.3c-1.3,0-2.4-1-2.4-2.3
	c0-1.3,1-2.3,2.3-2.3h2.4l0,2.3C6.4,21.3,5.3,22.3,4,22.3L4,22.3z M23.8,4.1c0-2.2-1.8-4-4-4c-2.2,0-4,1.8-4,4l0,2.3h-5.5
	c-2.2,0-4,1.7-4,3.9v0.1H4.1c-0.5,0-0.8,0.4-0.8,0.8S3.7,12,4.1,12h2.2l0,4H4c-2.2,0-4,1.8-4,4c0,2.2,1.8,4,4,4c2.2,0,4-1.8,4-4
	l0-2.3l5.5,0c2.1,0,3.9-1.8,4-4h2.3c0.5,0,0.8-0.4,0.8-0.8c0-0.5-0.4-0.8-0.8-0.8h-2.3l0-4h2.4C22.1,8.1,23.8,6.3,23.8,4.1L23.8,4.1
	z"/>
</svg>
