<svg width="140px" height="24px" viewBox="0 0 140 24" version="1.1" xmlns="http://www.w3.org/2000/svg" xmlns:xlink="http://www.w3.org/1999/xlink">
    <path d="M8.04489553,8.07830814 L3.9216409,8.07830814 L3.9216409,11.0517241 L7.15253949,11.0517241 C7.86624766,11.0517241 8.24297605,11.4286733 8.24297605,12.1421607 L8.24297605,12.9349244 C8.24297605,13.6486326 7.86624766,14.0251401 7.15253949,14.0251401 L3.9216409,14.0251401 L3.9216409,18.1881434 C3.9216409,18.9018515 3.54491252,19.2783591 2.83142517,19.2783591 L1.5429081,19.2783591 C0.829199932,19.2783591 0.452692373,18.9018515 0.452692373,18.1881434 L0.452692373,6.19510786 C0.452692373,5.48162052 0.829199932,5.10489214 1.5429081,5.10489214 L8.04489553,5.10489214 C8.75838288,5.10489214 9.13489044,5.48162052 9.13489044,6.19510786 L9.13489044,6.98809241 C9.13489044,7.70180058 8.75838288,8.07830814 8.04489553,8.07830814 Z M13.5555971,12.1024121 C13.5555971,8.03855954 16.5685409,4.86684219 20.9691524,4.86684219 C25.3699847,4.86684219 28.3829285,8.03855954 28.3829285,12.1024121 C28.3829285,16.2651945 25.3699847,19.5161882 20.9691524,19.5161882 C16.5685409,19.5161882 13.5555971,16.2651945 13.5555971,12.1024121 Z M24.794955,12.1024121 C24.794955,9.78308137 23.2089859,8.03855954 20.9691524,8.03855954 C18.7293188,8.03855954 17.1433498,9.78308137 17.1433498,12.1024121 C17.1433498,14.5208935 18.7293188,16.3444709 20.9691524,16.3444709 C23.2089859,16.3444709 24.794955,14.5208935 24.794955,12.1024121 Z M38.096161,12.677221 C37.5412264,11.745558 36.9067946,10.2589604 36.9067946,10.2589604 L36.8672669,10.2589604 C36.8672669,10.2589604 37.0258196,11.7853066 37.0258196,12.677221 L37.0258196,18.1881434 C37.0258196,18.9018515 36.6490912,19.2783591 35.9356039,19.2783591 L34.6470868,19.2783591 C33.9333786,19.2783591 33.5568711,18.9018515 33.5568711,18.1881434 L33.5568711,6.19510786 C33.5568711,5.48162052 33.9333786,5.10489214 34.6470868,5.10489214 L36.1933073,5.10489214 C36.807644,5.10489214 37.2042466,5.32284695 37.5014778,5.83869543 L40.9903007,11.7256837 C41.5454561,12.6575675 42.1798879,14.1443859 42.1798879,14.1443859 L42.2194157,14.1443859 C42.2194157,14.1443859 42.0608629,12.6178189 42.0608629,11.7256837 L42.0608629,6.19510786 C42.0608629,5.48162052 42.4375913,5.10489214 43.1510786,5.10489214 L44.4395957,5.10489214 C45.1533039,5.10489214 45.5298114,5.48162052 45.5298114,6.19510786 L45.5298114,18.1881434 C45.5298114,18.9018515 45.1533039,19.2783591 44.4395957,19.2783591 L42.8935961,19.2783591 C42.298692,19.2783591 41.9023102,19.0604043 41.605079,18.5449975 L38.096161,12.677221 Z M53.3198743,5.10489214 L57.2647019,5.10489214 C61.7249363,5.10489214 64.5795482,7.70180058 64.5795482,12.1618142 C64.5795482,16.6220486 61.7249363,19.2783591 57.2647019,19.2783591 L53.3198743,19.2783591 C52.6061661,19.2783591 52.2298794,18.9018515 52.2298794,18.1881434 L52.2298794,6.19510786 C52.2298794,5.48162052 52.6061661,5.10489214 53.3198743,5.10489214 Z M60.9913538,12.1618142 C60.9913538,9.46597588 59.4650076,8.07830814 57.1260234,8.07830814 L55.6988279,8.07830814 L55.6988279,16.3047223 L57.1260234,16.3047223 C59.5246305,16.3047223 60.9913538,14.8777476 60.9913538,12.1618142 Z M77.3852217,8.07830814 L73.261967,8.07830814 L73.261967,11.0517241 L76.4930865,11.0517241 C77.2065738,11.0517241 77.5833022,11.4286733 77.5833022,12.1421607 L77.5833022,12.9349244 C77.5833022,13.6486326 77.2065738,14.0251401 76.4930865,14.0251401 L73.261967,14.0251401 L73.261967,18.1881434 C73.261967,18.9018515 72.8850178,19.2783591 72.1717513,19.2783591 L70.8832342,19.2783591 C70.1695261,19.2783591 69.7930185,18.9018515 69.7930185,18.1881434 L69.7930185,6.19510786 C69.7930185,5.48162052 70.1695261,5.10489214 70.8832342,5.10489214 L77.3852217,5.10489214 C78.098709,5.10489214 78.4752166,5.48162052 78.4752166,6.19510786 L78.4752166,6.98809241 C78.4752166,7.70180058 78.098709,8.07830814 77.3852217,8.07830814 Z M82.4993205,12.1024121 C82.4993205,8.03855954 85.5124851,4.86684219 89.9130967,4.86684219 C94.313929,4.86684219 97.3268728,8.03855954 97.3268728,12.1024121 C97.3268728,16.2651945 94.313929,19.5161882 89.9130967,19.5161882 C85.5124851,19.5161882 82.4993205,16.2651945 82.4993205,12.1024121 Z M93.7388993,12.1024121 C93.7388993,9.78308137 92.153151,8.03855954 89.9130967,8.03855954 C87.6732631,8.03855954 86.087294,9.78308137 86.087294,12.1024121 C86.087294,14.5208935 87.6732631,16.3444709 89.9130967,16.3444709 C92.153151,16.3444709 93.7388993,14.5208935 93.7388993,12.1024121 Z M104.879548,5.10489214 C105.593036,5.10489214 105.969764,5.48162052 105.969764,6.19510786 L105.969764,16.3047223 L110.667827,16.3047223 C111.381536,16.3047223 111.758043,16.6816715 111.758043,17.3953797 L111.758043,18.1881434 C111.758043,18.9018515 111.381536,19.2783591 110.667827,19.2783591 L103.591031,19.2783591 C102.877323,19.2783591 102.500815,18.9018515 102.500815,18.1881434 L102.500815,6.19510786 C102.500815,5.48162052 102.877323,5.10489214 103.591031,5.10489214 L104.879548,5.10489214 Z M117.446951,5.10489214 L118.735468,5.10489214 C119.448955,5.10489214 119.825684,5.48162052 119.825684,6.19510786 L119.825684,18.1881434 C119.825684,18.9018515 119.448955,19.2783591 118.735468,19.2783591 L117.446951,19.2783591 C116.733243,19.2783591 116.356735,18.9018515 116.356735,18.1881434 L116.356735,6.19510786 C116.356735,5.48162052 116.733243,5.10489214 117.446951,5.10489214 Z M124.999185,12.1024121 C124.999185,8.03855954 128.012349,4.86684219 132.412961,4.86684219 C136.813793,4.86684219 139.826958,8.03855954 139.826958,12.1024121 C139.826958,16.2651945 136.813793,19.5161882 132.412961,19.5161882 C128.012349,19.5161882 124.999185,16.2651945 124.999185,12.1024121 Z M136.238763,12.1024121 C136.238763,9.78308137 134.653015,8.03855954 132.412961,8.03855954 C130.173127,8.03855954 128.587158,9.78308137 128.587158,12.1024121 C128.587158,14.5208935 130.173127,16.3444709 132.412961,16.3444709 C134.653015,16.3444709 136.238763,14.5208935 136.238763,12.1024121 Z" id="Combined-Shape"></path>
</svg>