<svg width="24px" height="24px" viewBox="0 0 24 24" version="1.1" xmlns="http://www.w3.org/2000/svg" xmlns:xlink="http://www.w3.org/1999/xlink">
            <path d="M17.4874403,6.40945236 L17.4866163,4.0920618 C17.4866163,2.80121202 18.5368481,1.75098026 19.8275948,1.75098026 C21.1302901,1.75098026 22.1901013,2.79410472 22.1901013,4.07630215 C22.1901013,5.36282575 21.1434747,6.40945236 19.8569511,6.40945236 L17.4874403,6.40945236 Z M13.4571914,13.6898987 L15.8298953,13.6898987 C15.774788,14.2521991 15.5270627,14.8053322 15.1313202,15.2368172 C14.6798524,15.7291777 14.1008652,16.000388 13.5008652,16.000388 L7.99816996,16.000388 L7.9968309,12.0379159 L10.4343245,12.0379159 C10.8893974,12.0379159 11.2583588,11.6689545 11.2583588,11.2138815 C11.2583588,10.7588086 10.8893974,10.3898472 10.4343245,10.3898472 L7.99631588,10.3898472 L7.99631588,10.3153751 C7.99631588,9.04924635 9.02460773,8.05752103 10.3372944,8.05752103 L15.8398867,8.05752103 L15.8412258,12.04183 L13.4571914,12.04183 C13.0021185,12.04183 12.6331571,12.4107914 12.6331571,12.8658644 C12.6331571,13.3209373 13.0021185,13.6898987 13.4571914,13.6898987 L13.4571914,13.6898987 Z M4.0103588,22.3069288 C2.70776652,22.3069288 1.64805837,21.2638043 1.64805837,19.9817099 C1.64805837,18.6950833 2.69468498,17.6484567 3.98120858,17.6484567 L6.35061631,17.6484567 L6.35133734,19.9658472 C6.35133734,21.2568 5.30120858,22.3069288 4.0103588,22.3069288 L4.0103588,22.3069288 Z M23.83817,4.07630215 C23.83817,1.88540086 22.038994,0.102911588 19.8275948,0.102911588 C17.6280412,0.102911588 15.8385476,1.89240515 15.8385476,4.09237082 L15.8393717,6.40945236 L10.3372944,6.40945236 C8.10045322,6.40945236 6.34824721,8.12509185 6.34824721,10.3156841 L6.34824721,10.3898472 L4.14972361,10.3898472 C3.69465064,10.3898472 3.32568927,10.7588086 3.32568927,11.2138815 C3.32568927,11.6689545 3.69465064,12.0379159 4.14972361,12.0379159 L6.34876223,12.0379159 L6.35010129,16.000388 L3.98120858,16.000388 C1.78598112,16.000388 -1.03004292e-05,17.7863794 -1.03004292e-05,19.9817099 C-1.03004292e-05,22.1725082 1.79906266,23.9549974 4.0103588,23.9549974 C6.20991245,23.9549974 7.99940601,22.1655039 7.99940601,19.9655382 L7.99868498,17.6484567 L13.5007622,17.6485597 C15.5871142,17.6485597 17.3604361,15.8592721 17.4824961,13.6898987 L19.7416893,13.6898987 C20.1968652,13.6898987 20.5657236,13.3209373 20.5657236,12.8658644 C20.5657236,12.4107914 20.1968652,12.04183 19.7416893,12.04183 L17.4892944,12.04183 L17.4879554,8.05752103 L19.8569511,8.05752103 C22.0521785,8.05752103 23.83817,6.27152961 23.83817,4.07630215 L23.83817,4.07630215 Z" id="Fill-1"></path>
</svg>