<svg width="24px" height="24px" viewBox="0 0 24 24" version="1.1" xmlns="http://www.w3.org/2000/svg" xmlns:xlink="http://www.w3.org/1999/xlink">
    <path d="M5.39130435,16.3703704 L5.39130435,9.43466667 L11.5852174,14.8218148 C11.7083478,14.928963 11.854087,14.982537 12,14.982537 C12.1457391,14.982537 12.2914783,14.928963 12.4146087,14.8218148 L18.6086957,9.43466667 L18.6086957,16.3703704 L5.39130435,16.3703704 Z M17.2006957,8.62962963 L12,13.1528704 L6.79930435,8.62962963 L17.2006957,8.62962963 Z M19.9984348,7.7972963 C19.997913,7.76694444 19.994087,7.7367963 19.9907826,7.70664815 C19.988,7.68322222 19.9866087,7.65959259 19.9822609,7.63677778 C19.9772174,7.61090741 19.9692174,7.58585185 19.961913,7.56038889 C19.9547826,7.53472222 19.9485217,7.50885185 19.9391304,7.4842037 C19.9311304,7.46322222 19.9203478,7.44325926 19.9106087,7.42268519 C19.897913,7.396 19.8857391,7.36911111 19.8706087,7.34425926 C19.8676522,7.33937037 19.865913,7.33387037 19.8627826,7.32898148 C19.8533913,7.31411111 19.8417391,7.3027037 19.8314783,7.28864815 C19.8153043,7.26664815 19.7994783,7.24444444 19.7813913,7.22427778 C19.7646957,7.20574074 19.7469565,7.19005556 19.7290435,7.17375926 C19.7114783,7.15766667 19.6942609,7.14177778 19.6753043,7.12772222 C19.6558261,7.11325926 19.6353043,7.10124074 19.6147826,7.08922222 C19.5951304,7.07761111 19.5756522,7.066 19.5549565,7.05662963 C19.5332174,7.04685185 19.5109565,7.03972222 19.4883478,7.03238889 C19.4674783,7.02566667 19.4471304,7.01874074 19.4255652,7.01425926 C19.4,7.00896296 19.3744348,7.00712963 19.3485217,7.0052963 C19.3335652,7.00407407 19.3194783,7 19.3043478,7 L4.69565217,7 C4.68034783,7 4.66591304,7.00407407 4.65078261,7.0052963 C4.62521739,7.00733333 4.59982609,7.00916667 4.5746087,7.01425926 C4.55286957,7.01874074 4.53217391,7.02587037 4.51130435,7.03259259 C4.48886957,7.03992593 4.46678261,7.04685185 4.44521739,7.05662963 C4.42434783,7.066 4.40486957,7.07761111 4.38521739,7.08922222 C4.36452174,7.10144444 4.34417391,7.11325926 4.32469565,7.12772222 C4.30573913,7.14177778 4.28852174,7.15766667 4.27095652,7.17375926 C4.25304348,7.19005556 4.23530435,7.20574074 4.2186087,7.22427778 C4.20052174,7.24444444 4.18469565,7.26664815 4.16852174,7.28864815 C4.15843478,7.3027037 4.1466087,7.31411111 4.13721739,7.32898148 C4.13408696,7.33387037 4.13234783,7.33937037 4.1293913,7.34425926 C4.11426087,7.36911111 4.10208696,7.3957963 4.0893913,7.42268519 C4.07965217,7.44325926 4.06886957,7.46322222 4.06086957,7.48440741 C4.05165217,7.50885185 4.0453913,7.53472222 4.03808696,7.56018519 C4.03095652,7.58564815 4.02278261,7.61090741 4.01773913,7.63677778 C4.0133913,7.65959259 4.012,7.68322222 4.0093913,7.70664815 C4.00591304,7.7367963 4.00208696,7.76694444 4.00156522,7.7972963 C4.0013913,7.8032037 4,7.8087037 4,7.81481481 L4,17.1851852 C4,17.6351667 4.31147826,18 4.69565217,18 L19.3043478,18 C19.6885217,18 20,17.6351667 20,17.1851852 L20,7.81481481 C20,7.8087037 19.9986087,7.8032037 19.9984348,7.7972963 L19.9984348,7.7972963 Z" id="mail"></path>
</svg>