<svg viewBox="0 0 24 24" version="1.1" xmlns="http://www.w3.org/2000/svg" xmlns:xlink="http://www.w3.org/1999/xlink">
    <path d="M15.8921935,11.3497585 C16.040587,11.4981519 16.126881,11.7046124 16.126881,11.9151053 C16.126881,12.1276145 16.040587,12.334075 15.8921935,12.4824684 C15.7440016,12.6328781 15.5353233,12.7169543 15.325032,12.7169543 C15.1145391,12.7169543 14.9080786,12.6328781 14.7576689,12.4824684 C14.6092755,12.334075 14.523183,12.1276145 14.523183,11.9151053 C14.523183,11.7046124 14.6092755,11.4981519 14.7576689,11.3497585 C14.9080786,11.1993488 15.1145391,11.1132564 15.325032,11.1132564 C15.5353233,11.1132564 15.7440016,11.1993488 15.8921935,11.3497585 M17.3694747,9.81118429 C17.3224969,10.1638204 17.0212743,10.420283 16.6748884,10.420283 C16.6440403,10.420283 16.612789,10.4182668 16.581336,10.4140328 C16.1972469,10.3628209 15.9274773,10.0099832 15.9786891,9.62569244 C16.1186145,8.57564732 14.9482013,8.02683341 14.8981992,8.00405017 C14.5473776,7.84335778 14.3903144,7.42862222 14.548789,7.07679258 C14.7072635,6.72496294 15.1179667,6.56669001 15.4708044,6.72274511 C15.5599212,6.76226293 17.6491238,7.71431998 17.3694747,9.81118429 M14.2405096,14.4533193 C11.6825368,14.4533193 9.60180219,12.3379058 9.60180219,9.73779404 C9.60180219,7.13788391 11.6825368,5.02247042 14.2405096,5.02247042 C16.7980792,5.02247042 18.8790154,7.13788391 18.8790154,9.73779404 C18.8790154,12.3379058 16.7980792,14.4533193 14.2405096,14.4533193 M14.2405096,3.41857085 C10.7984262,3.41857085 7.99810424,6.25337009 7.99810424,9.73779404 C7.99810424,11.2019699 8.49369005,12.5502133 9.3223547,13.62284 L3.40294708,19.625719 C3.05313366,19.9805729 3.05716609,20.5517668 3.41202005,20.9015803 C3.58763244,21.0749748 3.81647292,21.1612688 4.0453134,21.1612688 C4.27818631,21.1612688 4.51105922,21.0717489 4.68767971,20.8927089 L10.61737,14.879144 C11.639793,15.6194984 12.89025,16.0572188 14.2405096,16.0572188 C17.682593,16.0572188 20.4827134,13.2224196 20.4827134,9.73779404 C20.4827134,6.25337009 17.682593,3.41857085 14.2405096,3.41857085" transform="translate(11.812962, 12.289920) rotate(-105.000000) translate(-11.812962, -12.289920) "></path>
</svg>