<svg width="24px" height="24px" viewBox="0 0 24 24" version="1.1" xmlns="http://www.w3.org/2000/svg" xmlns:xlink="http://www.w3.org/1999/xlink">
    <path d="M18.6086957,12 C18.6086957,8.356 15.644,5.39130435 12,5.39130435 C8.356,5.39130435 5.39130435,8.356 5.39130435,12 C5.39130435,15.644 8.356,18.6086957 12,18.6086957 C15.644,18.6086957 18.6086957,15.644 18.6086957,12 M20,12 C20,16.4111304 16.4111304,20 12,20 C7.58886957,20 4,16.4111304 4,12 C4,7.58886957 7.58886957,4 12,4 C16.4111304,4 20,7.58886957 20,12 M11.9547826,14.786087 C11.7252174,14.786087 11.5026087,14.88 11.3391304,15.0417391 C11.1773913,15.2034783 11.0852174,15.4278261 11.0852174,15.6556522 C11.0852174,15.8852174 11.1773913,16.1095652 11.3391304,16.2713043 C11.5026087,16.4330435 11.7252174,16.5269565 11.9547826,16.5269565 C12.1843478,16.5269565 12.4086957,16.4330435 12.5704348,16.2713043 C12.7321739,16.1095652 12.8243478,15.8852174 12.8243478,15.6556522 C12.8243478,15.4278261 12.7321739,15.2034783 12.5704348,15.0417391 C12.4086957,14.88 12.1843478,14.786087 11.9547826,14.786087 M14.5951304,8.43391304 C15.1450435,9.05408696 15.4050435,9.91965217 15.2982609,10.8088696 C15.0975652,12.4787826 13.8763478,13.0737391 12.7897391,13.0737391 C12.7443478,13.0737391 12.6956522,13.0749565 12.6956522,13.0766957 L12.6956522,13.4989565 C12.6956522,13.8831304 12.3841739,14.1946087 12,14.1946087 C11.6158261,14.1946087 11.3043478,13.8831304 11.3043478,13.4989565 L11.3043478,12.9384348 C11.3043478,12.3653913 11.5433043,11.6824348 12.7897391,11.6824348 C13.4622609,11.6824348 13.8226087,11.3326957 13.9055652,10.6429565 C13.9335652,10.4090435 13.9551304,9.81530435 13.5485217,9.35721739 C13.218087,8.98469565 12.681913,8.79582609 11.9547826,8.79582609 C10.3808696,8.79582609 10.3354783,9.8133913 10.3354783,9.9293913 C10.3354783,10.3135652 10.024,10.6250435 9.63982609,10.6250435 C9.25565217,10.6250435 8.94417391,10.3135652 8.94417391,9.9293913 C8.94417391,9.22713043 9.48504348,7.40452174 11.9547826,7.40452174 C13.3775652,7.40452174 14.1784348,7.96434783 14.5951304,8.43391304" id="question"></path>
</svg>