<svg width="24px" height="24px" viewBox="0 0 24 24" version="1.1" xmlns="http://www.w3.org/2000/svg" xmlns:xlink="http://www.w3.org/1999/xlink">
    <path d="M19.5656458,7.02054566 C19.0222991,7.26141778 18.4385765,7.4243064 17.825783,7.49744477 C18.4512661,7.12252408 18.931626,6.52888043 19.157732,5.82149161 C18.5723943,6.16872585 17.9240699,6.42067255 17.2339851,6.55656688 C16.6814097,5.96776836 15.8939609,5.6 15.0227606,5.6 C13.3498068,5.6 11.9934014,6.95640538 11.9934014,8.62935918 C11.9934014,8.86677049 12.020165,9.09795236 12.0718463,9.31967469 C9.55422506,9.19323989 7.32177424,7.98726423 5.82762877,6.15442118 C5.56691469,6.60178808 5.41740786,7.12229336 5.41740786,7.6774067 C5.41740786,8.72856896 5.9522178,9.65583434 6.76504586,10.1989502 C6.2685355,10.1832612 5.80132664,10.0469055 5.39295149,9.82010729 C5.39272077,9.83279691 5.39272077,9.84548653 5.39272077,9.85817615 C5.39272077,11.3260195 6.43696142,12.5502221 7.822899,12.8287016 C7.5686451,12.8979178 7.3010094,12.9350638 7.02483706,12.9350638 C6.82964758,12.9350638 6.63976466,12.9159139 6.45495761,12.8806137 C6.84049143,14.0840514 7.95925478,14.9600969 9.28497434,14.9843226 C8.24811674,15.7969199 6.94200842,16.2812021 5.52261637,16.2812021 C5.27805272,16.2812021 5.03694988,16.2668974 4.8,16.2387495 C6.14071638,17.0984138 7.73314876,17.6 9.4439407,17.6 C15.0160697,17.6 18.0631943,12.9837458 18.0631943,8.98051566 C18.0631943,8.84923574 18.060195,8.71841726 18.054427,8.58852166 C18.6464555,8.16145815 19.1600392,7.62780181 19.5661072,7.02031494 L19.5656458,7.02054566 L19.5656458,7.02054566 Z" id="Shape"></path>
</svg>