<?xml version="1.0" standalone="no"?>
<!DOCTYPE svg PUBLIC "-//W3C//DTD SVG 20010904//EN"
 "http://www.w3.org/TR/2001/REC-SVG-20010904/DTD/svg10.dtd">
<svg version="1.0" xmlns="http://www.w3.org/2000/svg"
 width="260.000000pt" height="260.000000pt" viewBox="0 0 260.000000 260.000000"
 preserveAspectRatio="xMidYMid meet">
<metadata>
Created by potrace 1.11, written by Peter Selinger 2001-2013
</metadata>
<g transform="translate(0.000000,260.000000) scale(0.100000,-0.100000)"
fill="#000000" stroke="none">
<path d="M2036 2580 c-112 -35 -201 -108 -254 -209 -45 -85 -54 -132 -55 -298
-1 -129 -3 -153 -16 -157 -9 -2 -155 -4 -326 -4 -187 -1 -329 -5 -359 -12
-169 -38 -298 -175 -328 -350 l-12 -70 -101 -1 c-55 -1 -111 0 -124 1 -85 7
-131 -107 -64 -160 23 -18 41 -20 159 -20 l134 0 1 -182 c1 -188 0 -240 -6
-247 -2 -2 -80 -4 -172 -6 -180 -2 -211 -9 -303 -62 -246 -144 -279 -502 -65
-691 198 -174 513 -134 654 83 57 88 63 118 70 310 l6 180 295 2 c324 2 375 5
437 24 114 36 236 165 274 291 12 39 22 80 23 92 1 20 7 21 131 23 98 2 138 6
162 19 49 26 58 86 19 131 -24 28 -26 28 -167 33 l-143 5 -1 203 c0 112 3 208
6 214 4 6 63 10 149 10 149 0 232 13 298 47 213 109 299 370 191 583 -93 185
-315 279 -513 218z m239 -188 c92 -47 140 -126 139 -227 -1 -106 -50 -183
-146 -228 -44 -21 -64 -24 -201 -25 -83 0 -154 3 -157 8 -3 5 -4 75 -3 155 1
136 3 150 28 200 28 58 84 109 143 132 50 18 147 11 197 -15z m-564 -661 c13
-1 15 -28 16 -215 l0 -215 -148 -3 c-140 -3 -149 -4 -173 -27 -18 -17 -26 -35
-26 -57 0 -81 28 -94 205 -94 133 0 135 0 135 -22 0 -24 -40 -113 -62 -138
-31 -36 -82 -70 -120 -81 -32 -8 -478 -15 -645 -10 l-23 1 0 215 0 215 149 0
c132 0 151 2 173 20 51 40 40 124 -20 149 -16 7 -33 11 -38 10 -5 -1 -66 -1
-137 0 l-127 1 4 33 c15 123 107 206 240 216 54 5 503 6 597 2z m-1021 -1190
c0 -173 -12 -221 -71 -280 -122 -122 -305 -102 -399 43 -29 43 -34 61 -37 116
-3 100 39 179 126 232 47 30 78 34 239 35 l142 1 0 -147z"/>
</g>
</svg>
